<svg xmlns="http://www.w3.org/2000/svg" viewBox="0 0 500 500"><defs><style>.cls-1,.cls-7{fill:none;}.cls-2{fill:#e1e0ff;}.cls-3{fill:#efd1ff;}.cls-4{fill:#d6dbf5;}.cls-5{fill:#b5bee5;}.cls-6{fill:#8fa1ea;}.cls-7{stroke:#8fa1ea;stroke-linecap:round;stroke-linejoin:round;stroke-width:0;}.cls-8{fill:#ffca00;}.cls-9{fill:#5e3b6f;}.cls-10{fill:#fff;}.cls-11{fill:#ffe300;}.cls-12{fill:#8bbbbb;}.cls-13{fill:#b686d6;}.cls-14{fill:#d1acdb;}.cls-15{fill:#6b7590;}.cls-16{fill:#9d88ae;}.cls-17{fill:#ffca06;}.cls-18{fill:#a66de5;}.cls-19{fill:#744c97;}.cls-20{fill:#d3b5f2;}.cls-21{fill:#fdf;}.cls-22{fill:#4d3183;}.cls-23{fill:#a9a4ce;}.cls-24{fill:#9a9fb3;}.cls-25{fill:#d39de5;}.cls-26{fill:#ae86d1;}.cls-27{fill:#ffd400;}.cls-28{fill:#ff0;}</style></defs><title>background_1</title><g id="Layer_2" data-name="Layer 2"><g id="Layer_1-2" data-name="Layer 1"><path class="cls-1" d="M123.6,416.86l.1.12,0,0Z"/><path class="cls-1" d="M366.11,271.06a6.41,6.41,0,0,1-.3-.75c0,.21-.06.41-.09.62Z"/><path class="cls-1" d="M90.5,176.49a6.88,6.88,0,0,1-.79.12,8.55,8.55,0,0,1,1.09.72C90.69,177.05,90.59,176.77,90.5,176.49Z"/><path class="cls-1" d="M95,170.55l-.31-.2c0,.07,0,.13,0,.2Z"/><path class="cls-1" d="M368.66,273.88l-.27-.17c0,.06,0,.12,0,.17Z"/><path class="cls-1" d="M91.9,167.17a7.7,7.7,0,0,1-.35-.89c0,.25-.08.5-.11.74C91.6,167.06,91.75,167.11,91.9,167.17Z"/><path class="cls-1" d="M143.93,419.7c-.31.06-.61.1-.9.13,0,.13.09.26.13.4C143.41,420,143.66,419.87,143.93,419.7Z"/><path class="cls-1" d="M359.63,271.74l.15-.19-.37,0Z"/><path class="cls-1" d="M139.21,392.36a15.81,15.81,0,0,1-5.79.45,31.12,31.12,0,0,1,2.41,10.31,23.83,23.83,0,0,1-.06,2.9,31.36,31.36,0,0,1,7.57-11.46c0-.15-.05-.29-.08-.44C141.9,393.57,140.51,393,139.21,392.36Z"/><path class="cls-1" d="M134.58,412.52s0-.06,0-.1l0,.09Z"/><path class="cls-1" d="M494.1,243.26l.08.09,0,0Z"/><path class="cls-1" d="M364.94,278.82a5.76,5.76,0,0,1-.68.09,7.12,7.12,0,0,1,.93.62C365.1,279.29,365,279.06,364.94,278.82Z"/><path class="cls-1" d="M84.13,168l.19-.23-.44,0Z"/><path class="cls-1" d="M5.81,244.9l-.53.08.08.23C5.49,245.1,5.65,245,5.81,244.9Z"/><path class="cls-1" d="M86,472.32h0C86,472.39,86,472.41,86,472.32Z"/><path class="cls-1" d="M.43,240.7l0,.08h0S.43,240.73.43,240.7Z"/><path class="cls-1" d="M86,472.25l0,.07h0Z"/><path class="cls-2" d="M395.13,257.13a2.18,2.18,0,0,1,1,1.13,3.35,3.35,0,0,0,.42-1.6,3.43,3.43,0,0,0-6.77-.78A10.9,10.9,0,0,1,395.13,257.13Z"/><path class="cls-2" d="M383.74,241.53a2.3,2.3,0,0,0,1.62-2.63,2.26,2.26,0,0,0-2.23-1.85,2.29,2.29,0,1,0,.61,4.49Z"/><path class="cls-2" d="M331.8,286.32c-3.88,0-3.88,6,0,6S335.68,286.32,331.8,286.32Z"/><path class="cls-2" d="M393.8,372.07c-4.21,0-4.21,6.52,0,6.52S398,372.07,393.8,372.07Z"/><path class="cls-2" d="M124.62,293.24a2.23,2.23,0,0,0,.35-.77l0-.09a2.94,2.94,0,1,0-5.61-.16,3.29,3.29,0,0,0,.44,1A2.81,2.81,0,0,0,124.62,293.24Z"/><path class="cls-2" d="M145.33,93.13A2.87,2.87,0,1,0,148.21,96,2.9,2.9,0,0,0,145.33,93.13Z"/><path class="cls-2" d="M158.79,110.05h0a1.61,1.61,0,0,0,0-2.77h0a1.75,1.75,0,0,0-1.59,0,1.42,1.42,0,0,0,0,2.84A1.75,1.75,0,0,0,158.79,110.05Z"/><path class="cls-2" d="M148,4.11c0-.09.06-.17.09-.26A3,3,0,0,0,146.85.07L146.7,0h-2.76a2.59,2.59,0,0,0-1.21,1.15,4.83,4.83,0,0,0-.58,2,3,3,0,0,0,3,3A10.57,10.57,0,0,1,148,4.11Z"/><path class="cls-2" d="M55.8,87.08A3.09,3.09,0,1,0,52.71,84,3.11,3.11,0,0,0,55.8,87.08Z"/><path class="cls-2" d="M73.8,394.46c-3.7,0-3.7,5.74,0,5.74S77.5,394.46,73.8,394.46Z"/><path class="cls-2" d="M89.87,472.45a1.48,1.48,0,0,0-.51-.81c-.76-1.19-3-1-3.33.54l0,.14,0-.07,0,.07c0,.09,0,.07,0,0a2,2,0,0,0,1.31,2.75A2.14,2.14,0,0,0,89.87,472.45Z"/><polygon class="cls-2" points="86 472.32 86 472.32 86 472.32 86 472.32"/><path class="cls-2" d="M377.19,429.33a3.28,3.28,0,1,0,3.28-3.28A3.31,3.31,0,0,0,377.19,429.33Z"/><path class="cls-2" d="M313.73,433.39a2.37,2.37,0,0,0-3.23.85,3.16,3.16,0,0,0-.35,1.63,2.36,2.36,0,0,0,2.32,2.33,2.28,2.28,0,0,0,2.23-1.81A2.4,2.4,0,0,0,313.73,433.39Z"/><path class="cls-2" d="M323.13,481.41c4.41,0,4.41-6.84,0-6.84S318.73,481.41,323.13,481.41Z"/><path class="cls-2" d="M453.65,390l-.15.46c-1,3,4.66,3,3.65,0L457,390A1.75,1.75,0,0,0,453.65,390Z"/><path class="cls-2" d="M445.8,98a3.36,3.36,0,1,0,3.36,3.36A3.39,3.39,0,0,0,445.8,98Z"/><path class="cls-2" d="M458.79,109a1.45,1.45,0,0,0,0,2.06,2.12,2.12,0,0,0,2,.29,1.38,1.38,0,0,0,0-2.64A2.12,2.12,0,0,0,458.79,109Z"/><path class="cls-2" d="M420.47,3.56c-4,0-4,6.21,0,6.21S424.47,3.56,420.47,3.56Z"/><path class="cls-2" d="M405.8,38.78a1.46,1.46,0,0,0,1.39-1.83c-.2-.7-.56-1.38-1.39-1.38s-1.19.68-1.39,1.38A1.46,1.46,0,0,0,405.8,38.78Z"/><path class="cls-2" d="M353.8,101.5A2.83,2.83,0,1,0,351,98.66,2.86,2.86,0,0,0,353.8,101.5Z"/><path class="cls-3" d="M303.8,199.25a4,4,0,0,0,1.74-.54,5.73,5.73,0,0,0,.7-.34,3.51,3.51,0,1,0-4.75-4.9,4.15,4.15,0,0,0-1,1.58A3.34,3.34,0,0,0,303.8,199.25Z"/><path class="cls-3" d="M330.47,204.61a1.39,1.39,0,0,0,0,2.77A1.39,1.39,0,0,0,330.47,204.61Z"/><path class="cls-3" d="M429.35,120.81a2.56,2.56,0,0,0,1.39-1.09,3,3,0,0,0,.43-1.73,2.08,2.08,0,0,0-1.49-2,2.15,2.15,0,0,0-1.34.11,2.33,2.33,0,0,0-.45.07,2.39,2.39,0,0,0,.63,4.69q-.88-.16.17,0A2.26,2.26,0,0,0,429.35,120.81Z"/><path class="cls-3" d="M402.4,4.07l.12-.18a1.09,1.09,0,0,0,0-1.12l-.12-.18a1.48,1.48,0,0,0-2.73.74A1.48,1.48,0,0,0,402.4,4.07Z"/><path class="cls-3" d="M117,10.93a2.57,2.57,0,0,0-1.33-.37A2.76,2.76,0,0,0,113,13.25a1.78,1.78,0,0,0-.06.6,2,2,0,0,0,0,.26l.07.2A12.48,12.48,0,0,1,117,10.93Z"/><path class="cls-3" d="M156,84.26a2.27,2.27,0,0,0,1.31-.42,2,2,0,0,0,.73-3.21,21.34,21.34,0,0,1-4.3,1.44A2.28,2.28,0,0,0,156,84.26Z"/><path class="cls-3" d="M41.31,84.06a2.71,2.71,0,0,0-.22-.54,2.27,2.27,0,1,0-2.56,3.33,2.22,2.22,0,0,0,2.58-1.16,2.3,2.3,0,0,0,.19-.39v0A1.75,1.75,0,0,0,41.31,84.06Z"/><path class="cls-3" d="M54.2,234.52a3.89,3.89,0,0,0-.45,2,3.27,3.27,0,0,0,.9,2.17,3.07,3.07,0,0,0,4.35,0,2.79,2.79,0,0,0,.73-1.3,3.18,3.18,0,0,0-1.26-4A3.13,3.13,0,0,0,54.2,234.52Z"/><path class="cls-3" d="M95.13,385.31a1.31,1.31,0,0,0,0-2.62A1.31,1.31,0,0,0,95.13,385.31Z"/><path class="cls-3" d="M91.57,442a3.11,3.11,0,1,0-3.11,3.11A3.13,3.13,0,0,0,91.57,442Z"/><path class="cls-3" d="M131.8,373.93a3.26,3.26,0,1,0-3.26-3.26A3.29,3.29,0,0,0,131.8,373.93Z"/><path class="cls-3" d="M119.33,344.69l0,0a1.43,1.43,0,0,1,.07.15C119.46,345,119.53,345.08,119.33,344.69Z"/><path class="cls-3" d="M119.4,345.82l0,0v0l0-.08a1.31,1.31,0,0,0-.11-.93,1.67,1.67,0,1,0,0,1.12Q119.29,346.08,119.4,345.82Z"/><path class="cls-3" d="M148.89,278.44a1.78,1.78,0,1,0-1.78-1.78A1.79,1.79,0,0,0,148.89,278.44Z"/><path class="cls-3" d="M274.56,310.66a3.24,3.24,0,1,0,3.24-3.24A3.27,3.27,0,0,0,274.56,310.66Z"/><path class="cls-3" d="M311,398.55a1.32,1.32,0,0,0-.83-.63l-.21-.05a1.81,1.81,0,0,0-1.19-.13,1.49,1.49,0,0,0-1.08,1.09v0a1.65,1.65,0,0,0,.73,1.8,1.46,1.46,0,0,0,.19.08A4.65,4.65,0,0,1,311,398.55Z"/><path class="cls-3" d="M189.14,475.4l.17.13a3,3,0,0,0,4.26-4.26l-.13-.17C191,468,186.05,472.95,189.14,475.4Z"/><path class="cls-3" d="M312.85,285.61a1.52,1.52,0,0,0-2.1,0l-.22.17a1.64,1.64,0,0,0-1.08,1.54,1.7,1.7,0,0,0,2.13,1.62,1.81,1.81,0,0,0,1.32-1.08,2.18,2.18,0,0,0,.16-.19.61.61,0,0,0,.07-.43A1.41,1.41,0,0,0,312.85,285.61Z"/><path class="cls-3" d="M408.18,403.08a3.36,3.36,0,0,0-5.18.22,4.48,4.48,0,0,0-.37.49,3,3,0,0,0,0,3.08,4.68,4.68,0,0,0,.5.58,10.22,10.22,0,0,1,1.64-2A15.51,15.51,0,0,1,408.18,403.08Z"/><path class="cls-3" d="M461.13,333.89a3.22,3.22,0,1,0-3.22-3.22A3.25,3.25,0,0,0,461.13,333.89Z"/><path class="cls-3" d="M11.38,215.56c1.77-.43,3.3-2.57,2.59-4.39a3.62,3.62,0,0,0-1.55-2A3.35,3.35,0,0,0,7.36,212a2.75,2.75,0,0,0,.08,1.42A3.25,3.25,0,0,0,11.38,215.56Z"/><path class="cls-2" d="M34,228a1.89,1.89,0,0,0,1.34-.18,1,1,0,0,0,0-1.69A1.2,1.2,0,0,0,35,226a1,1,0,0,0-2,0,2.82,2.82,0,0,0,.12,1.19l0,.13,0,0v0A1.09,1.09,0,0,0,34,228Z"/><path class="cls-2" d="M71,223.93c3.78,0,3.78-5.86,0-5.86S67.22,223.93,71,223.93Z"/><path class="cls-4" d="M82,166a9.24,9.24,0,0,1,1.49,1.39l.34.35.44,0,.15-.18a9.07,9.07,0,0,1-.55-2,4.26,4.26,0,0,1-1.86-.44A2.33,2.33,0,0,1,82,166Z"/><path class="cls-4" d="M78.5,163.58a2.18,2.18,0,0,1,1.07-.41c-3.64-4.13-6-12.35-6.22-15.19-.07-1.16,1.58-1.41,2.18-.56,2.78,4,3.68,9.08,6.77,12.75-.57-2.5-.95-5.1-1.53-7.51a34.18,34.18,0,0,1-1.11-9.28,1,1,0,0,1,1.87-.24c1,3.89,2.19,7.75,3.25,11.64.16.6.33,1.2.5,1.8.1-.44.19-.89.25-1.33.43-3,.35-6,.77-9,.12-.85,1.39-1.44,1.91-.49a15,15,0,0,1,1.43,8.82c-.32,2.93-.32,6.65-2.21,9.06a1.77,1.77,0,0,1-.88.58c.18.53.34,1.07.52,1.6,0,.06,0,.11.07.17h0a5.79,5.79,0,0,1,1.54,0,7.23,7.23,0,0,1,.52-2.35,2,2,0,0,1-.52-1.34,2.27,2.27,0,0,1,1.79-2.12,2.11,2.11,0,0,1,1.36-.18,13.39,13.39,0,0,1,2.73-4.42c0-.35.08-.7.1-1.06.61-8.15-1.08-18.06-2.75-20.94a2.57,2.57,0,0,0-2.81-1.08,7.21,7.21,0,0,0-3.39,1.88A8.56,8.56,0,0,0,82.49,131a2.65,2.65,0,0,0-3,.37,12,12,0,0,0-4,7.09,14.46,14.46,0,0,0-2.87-2.71,2.41,2.41,0,0,0-2.33,0c-5.49,2.8-3.37,10.05-1.43,14.34a54,54,0,0,0,3.36,6.41,27.75,27.75,0,0,0,2.26,4.94l.21.33a28.1,28.1,0,0,1,3.2,1.48Z"/><path class="cls-5" d="M80.33,163.21a2,2,0,0,1,1.06.7,2,2,0,0,1,.65,1.24,4.26,4.26,0,0,0,1.86.44c0-.27-.08-.53-.1-.79a2.21,2.21,0,0,1-1.71-2.08,2.3,2.3,0,0,1,4.6,0,2,2,0,0,1-.31,1.05c.06.15.11.31.16.46a1.77,1.77,0,0,0,.88-.58c1.9-2.42,1.89-6.13,2.21-9.06a15,15,0,0,0-1.43-8.82c-.52-1-1.79-.37-1.91.49-.42,3-.34,6-.77,9-.06.44-.15.89-.25,1.33-.17-.6-.34-1.2-.5-1.8-1.06-3.89-2.22-7.74-3.25-11.64a1,1,0,0,0-1.87.24,34.18,34.18,0,0,0,1.11,9.28c.58,2.41,1,5,1.53,7.51-3.1-3.67-4-8.78-6.77-12.75-.6-.85-2.25-.6-2.18.56.17,2.84,2.58,11.06,6.22,15.19A2.15,2.15,0,0,1,80.33,163.21Z"/><path class="cls-4" d="M45.58,167.81a12.61,12.61,0,0,0,5.94,5.74,15.22,15.22,0,0,0-3.63,1.73,2.07,2.07,0,0,0-.72,2.09c1.14,5.78,9.11,6.12,14,5.71a62.12,62.12,0,0,0,7.51-1,32.34,32.34,0,0,0,5.69-.49l.4-.09a26.36,26.36,0,0,1,2.49-2.41l.61-.51a1.51,1.51,0,0,1-.2-1c-5.3,2-14.32,1.59-17.24.87a1.09,1.09,0,0,1,.11-2.12c4.87-1.27,10.31-.49,15-2.13-2.7-.27-5.44-.73-8.06-1a40.52,40.52,0,0,1-9.72-1.88.9.9,0,0,1,.34-1.75c4.25.28,8.51.44,12.76.69l2,.11c-.42-.22-.84-.44-1.27-.64-2.9-1.31-6-2.17-8.85-3.47-.83-.37-1-1.69.1-1.86a17.69,17.69,0,0,1,9.35,1.45c2.73,1.14,6.25,2.25,8.18,4.47l.12.05a12,12,0,0,1,1.74-.41c-.69-.67-1.31-1.45-1.91-2.13a2.33,2.33,0,0,1-2.49-1l-.12-.21a2.24,2.24,0,0,1,.51-2.85,2.4,2.4,0,0,1,.29-.23l-.6-.34a28.1,28.1,0,0,0-3.2-1.48c-.35-.14-.68-.29-1-.42-8-3.06-18.58-4.61-22-4a2.4,2.4,0,0,0-2,2.18,6.39,6.39,0,0,0,.85,3.62A9.15,9.15,0,0,0,46.15,165,2.28,2.28,0,0,0,45.58,167.81Z"/><path class="cls-4" d="M81,175.39a3,3,0,0,1,.72.33,6.66,6.66,0,0,1,1.67-1.88,4.17,4.17,0,0,1-.43-1l-1.26.2v0A3.39,3.39,0,0,1,81,175.39Z"/><path class="cls-5" d="M78.91,176a2.07,2.07,0,0,1,2.08-.59h0a3.39,3.39,0,0,0,.7-2.27v0l-.17,0a2.38,2.38,0,0,1-2.25,1.55,2.33,2.33,0,0,1-2.38-2.24,2.26,2.26,0,0,1,.48-1.33h0a1.82,1.82,0,0,1,1.16-.9h0l.32-.07.15,0h.47l.15,0,.32.07h0a2.25,2.25,0,0,1,.35.15c-1.93-2.22-5.45-3.33-8.18-4.47a17.69,17.69,0,0,0-9.35-1.45c-1.12.18-.92,1.49-.1,1.86,2.89,1.3,6,2.16,8.85,3.47.43.19.85.41,1.27.64l-2-.11c-4.25-.25-8.51-.41-12.76-.69a.9.9,0,0,0-.34,1.75,40.52,40.52,0,0,0,9.72,1.88c2.62.22,5.36.69,8.06,1-4.66,1.64-10.11.86-15,2.13a1.09,1.09,0,0,0-.11,2.12c2.92.72,11.94,1.11,17.24-.87a2,2,0,0,1,.59-1.21A2.07,2.07,0,0,1,78.91,176Z"/><path class="cls-4" d="M90.8,180.41a2.23,2.23,0,0,1-.06-.5,2.29,2.29,0,0,1,.52-1.43q-.24-.57-.46-1.14a8.55,8.55,0,0,0-1.09-.72l-.4,0H89.2c-.13.55-.19,1.12-.29,1.66,0,.17-.05.34-.07.52A3.75,3.75,0,0,1,90.8,180.41Z"/><path class="cls-4" d="M92.11,182a2.59,2.59,0,0,1-.88-.72c1.88,5-2.09,15.27-4,18a1.19,1.19,0,0,1-2.11-.75c.23-4.75,2.7-9.38,2.48-14.07-1.1,2.34-2.42,4.65-3.45,6.92a35.71,35.71,0,0,1-4.9,8.12c-.65.78-2.08.12-1.66-.84,1.6-3.72,3.07-7.48,4.64-11.21l.72-1.74c-.36.3-.71.61-1,.94-2.22,2.19-4,4.67-6.24,6.85-.63.62-2,.4-1.85-.66A15.49,15.49,0,0,1,78.19,185c2-2.06,4.13-4.81,6.91-5.89a2.53,2.53,0,0,1,.71-.45,8.28,8.28,0,0,1,.34-1.39,6.53,6.53,0,0,1,.4-.94,5.29,5.29,0,0,1-.83-.43l0,0c-.14.1-.29.19-.42.3a26.37,26.37,0,0,0-2.43,2.23.82.82,0,0,1-.15.11,2.07,2.07,0,0,1-2,1.56,3.19,3.19,0,0,1-2.7-1.4,1.23,1.23,0,0,1-.07-.12l-.61.51a26.36,26.36,0,0,0-2.49,2.41c-.25.27-.5.52-.74.8-5.58,6.26-10.4,15.21-10.85,18.46a2.35,2.35,0,0,0,1.6,2.43,7.54,7.54,0,0,0,3.92.35,7.89,7.89,0,0,0,.51,4.52,2.56,2.56,0,0,0,2.68,1.38,13.3,13.3,0,0,0,7.63-3.54,13.31,13.31,0,0,0,.63,3.78,2.27,2.27,0,0,0,1.89,1.29c6.19.77,9-6.27,10.1-10.81a52.29,52.29,0,0,0,1.28-7,27.17,27.17,0,0,0,1.26-5.24c0-.12,0-.24,0-.35a24.91,24.91,0,0,1-1.66-3A18.58,18.58,0,0,1,92.11,182Z"/><path class="cls-5" d="M88.84,178.83c0,.21,0,.43-.06.64a2.2,2.2,0,0,1,.45,1.32,2.47,2.47,0,0,1-4.94,0,2.26,2.26,0,0,1,.8-1.69c-2.77,1.08-4.94,3.84-6.91,5.89a15.49,15.49,0,0,0-4.35,7.92c-.17,1.06,1.22,1.29,1.85.66,2.21-2.18,4-4.67,6.24-6.85.33-.32.68-.63,1-.94l-.72,1.74c-1.57,3.73-3,7.49-4.64,11.21-.41,1,1,1.63,1.66.84a35.71,35.71,0,0,0,4.9-8.12c1-2.27,2.35-4.58,3.45-6.92.22,4.68-2.25,9.31-2.48,14.07a1.19,1.19,0,0,0,2.11.75c1.89-2.78,5.87-13.05,4-18a2.35,2.35,0,0,1-.43-.9A3.75,3.75,0,0,0,88.84,178.83Z"/><path class="cls-4" d="M96.9,173.63a2.87,2.87,0,0,1-.47-.27,4.3,4.3,0,0,1-.65,0c-.51,0-1,0-1.5-.05,0,.09-.07.18-.12.26a8.62,8.62,0,0,1,1.13.53l.35.19a2.42,2.42,0,0,1,.88-.34A3.67,3.67,0,0,1,96.9,173.63Z"/><path class="cls-4" d="M100.82,172.14a2.33,2.33,0,0,1-.26.59c5.66.5,14,6.7,16.12,9.12.78.9-.4,2-1.41,1.66-4.73-1.67-8.65-5.31-13.44-6.57,2,1.71,3.95,3.6,5.93,5.23a37.07,37.07,0,0,1,6.69,6.9.93.93,0,0,1-1.37,1.23c-3.26-2.58-6.61-5.06-9.89-7.62l-1.53-1.18c.2.41.4.82.63,1.22,1.52,2.67,3.47,5.05,5,7.71.44.76-.22,1.93-1.24,1.45a16.29,16.29,0,0,1-6.66-6.35c-1.31-2.13-3.12-4.57-3.68-7.06a2.33,2.33,0,0,1-1.08-1.57,9.41,9.41,0,0,1-.84-.47,11.42,11.42,0,0,1,.61,1.29,2.45,2.45,0,0,1,1.52,2.2,2.53,2.53,0,0,1-2.58,2.43,2.64,2.64,0,0,1-1.21-.3,18.58,18.58,0,0,0,1,2.45,24.91,24.91,0,0,0,1.66,3c.19.29.38.58.58.87,4.6,6.93,12.15,14,15.3,15.42a2.61,2.61,0,0,0,2.95-.68,6.52,6.52,0,0,0,1.57-3.4,9.34,9.34,0,0,0,4.72.94,2.47,2.47,0,0,0,2.22-2,11.59,11.59,0,0,0-1.22-7.93,15.87,15.87,0,0,0,4,.6,2.28,2.28,0,0,0,1.89-1.29c2.69-5.3-3.55-10-7.8-12.39a60.13,60.13,0,0,0-6.72-3.32,30.71,30.71,0,0,0-4.91-2.75l-.38-.15a28.53,28.53,0,0,1-3.51.57A22,22,0,0,1,100.82,172.14Z"/><path class="cls-5" d="M98.37,173.92a2.37,2.37,0,0,1-.37,0,3.07,3.07,0,0,1-1.1-.29,3.67,3.67,0,0,0-.39.36,3.05,3.05,0,0,1,.55-.05,2.44,2.44,0,1,1,0,4.89,2.62,2.62,0,0,1-1.38-.37c.56,2.49,2.37,4.94,3.68,7.06a16.29,16.29,0,0,0,6.66,6.35c1,.48,1.68-.69,1.24-1.45-1.52-2.65-3.47-5-5-7.71-.22-.39-.43-.8-.63-1.22l1.53,1.18c3.28,2.55,6.63,5,9.89,7.62a.93.93,0,0,0,1.37-1.23,37.07,37.07,0,0,0-6.69-6.9c-2-1.63-3.91-3.52-5.93-5.23,4.8,1.25,8.71,4.9,13.44,6.57,1,.36,2.2-.76,1.41-1.66-2.11-2.42-10.46-8.61-16.12-9.12a2.4,2.4,0,0,1-.39.48A2.82,2.82,0,0,1,98.37,173.92Z"/><path class="cls-4" d="M92,160a2.07,2.07,0,0,1,1.59,2,2.48,2.48,0,0,1-1.41,2.15,7.19,7.19,0,0,0-.56,1.66c0,.16,0,.32-.07.48a7.7,7.7,0,0,0,.35.89,5,5,0,0,1,.81.36,3.8,3.8,0,0,1,.82-.93c.22-.17.44-.33.66-.49-4.37-5.24,9.79-14.5,13.89-16a1.12,1.12,0,0,1,1.24,1.78c-3.15,3.72-8,6.1-10.79,10,2.35-1.28,4.86-2.43,7.11-3.69a39.64,39.64,0,0,1,9-3.86c1-.27,1.75,1.06.82,1.6-3.61,2.12-7.16,4.36-10.75,6.51l-1.67,1c.48,0,1-.11,1.42-.19,3.16-.54,6.18-1.55,9.33-2.09.9-.16,1.88.8,1.08,1.56a17.17,17.17,0,0,1-8.47,4c-3,.6-6.61,1.69-9.59.87-.31.25-.64.48-1,.73a12.07,12.07,0,0,0-1.43,1.32,4.2,4.2,0,0,1,.19.7l.31.2c.25,0,.49,0,.74,0a2.63,2.63,0,0,1,1.95-1.35h0a2.56,2.56,0,0,1,3.24,2.32,2.25,2.25,0,0,1-.1.63,22,22,0,0,0,2.64-.13,28.53,28.53,0,0,0,3.51-.57c.37-.08.73-.14,1.1-.24,8.42-2,17.91-6.55,20.3-8.93a2.25,2.25,0,0,0,.22-2.85,7,7,0,0,0-3-2.46,8.26,8.26,0,0,0,2.41-3.94,2.34,2.34,0,0,0-1.3-2.6,13.68,13.68,0,0,0-8.39-1.36,13.83,13.83,0,0,0,1.85-3.41,2.07,2.07,0,0,0-.72-2.09c-4.53-4-11.19.09-14.92,3.15a57.16,57.16,0,0,0-5.43,5,30,30,0,0,0-4.29,3.55l-.27.3A13.39,13.39,0,0,0,91.85,160Z"/><path class="cls-5" d="M97.53,162.18a2.31,2.31,0,1,1,0,4.61h-.09a2,2,0,0,1-.53.78l0,0c3,.82,6.61-.27,9.59-.87a17.17,17.17,0,0,0,8.47-4c.8-.76-.18-1.72-1.08-1.56-3.15.54-6.16,1.55-9.33,2.09-.47.08-.95.14-1.42.19l1.67-1c3.59-2.15,7.14-4.38,10.75-6.51.94-.55.2-1.88-.82-1.6a39.64,39.64,0,0,0-9,3.86c-2.26,1.26-4.76,2.41-7.11,3.69,2.75-3.91,7.64-6.29,10.79-10a1.12,1.12,0,0,0-1.24-1.78c-4.1,1.51-18.26,10.77-13.89,16,.37-.27.74-.52,1.12-.76A2.29,2.29,0,0,1,97.53,162.18Z"/><path class="cls-6" d="M80.68,180.07a2.07,2.07,0,0,0,2-1.56.82.82,0,0,0,.15-.11,26.37,26.37,0,0,1,2.43-2.23c.13-.11.28-.2.42-.3l0,0a5.29,5.29,0,0,0,.83.43,6.53,6.53,0,0,0-.4.94,8.28,8.28,0,0,0-.34,1.39,2.53,2.53,0,0,0-.71.45,2.26,2.26,0,0,0-.8,1.69,2.47,2.47,0,0,0,4.94,0,2.2,2.2,0,0,0-.45-1.32c0-.21,0-.42.06-.64s0-.34.07-.52c.1-.54.17-1.11.29-1.66h.11l.4,0a6.88,6.88,0,0,0,.79-.12c.09.28.19.57.3.85s.3.76.46,1.14a2.29,2.29,0,0,0-.52,1.43,2.23,2.23,0,0,0,.06.5,2.35,2.35,0,0,0,.43.9,2.59,2.59,0,0,0,.88.72,2.64,2.64,0,0,0,1.21.3,2.53,2.53,0,0,0,2.58-2.43,2.45,2.45,0,0,0-1.52-2.2,11.42,11.42,0,0,0-.61-1.29,9.41,9.41,0,0,0,.84.47,2.46,2.46,0,0,1,1-2.55l-.35-.19a8.62,8.62,0,0,0-1.13-.53c0-.09.08-.17.12-.26.49,0,1,0,1.5.05a4.3,4.3,0,0,0,.65,0,2.87,2.87,0,0,0,.47.27,3.07,3.07,0,0,0,1.1.29,2.37,2.37,0,0,0,.37,0,2.82,2.82,0,0,0,1.81-.7,2.4,2.4,0,0,0,.39-.48,2.33,2.33,0,0,0,.26-.59,2.25,2.25,0,0,0,.1-.63,2.56,2.56,0,0,0-3.24-2.32h0a2.63,2.63,0,0,0-1.95,1.35c-.24,0-.49,0-.74,0h-.27c0-.07,0-.13,0-.2a4.2,4.2,0,0,0-.19-.7,12.07,12.07,0,0,1,1.43-1.32c.32-.24.65-.47,1-.73l0,0a2,2,0,0,0,.53-.78h.09a2.31,2.31,0,1,0-2.22-1.45c-.38.24-.76.5-1.12.76s-.44.32-.66.49a3.8,3.8,0,0,0-.82.93,5,5,0,0,0-.81-.36c-.15-.05-.3-.11-.46-.15,0-.25.07-.5.11-.74s0-.32.07-.48a7.19,7.19,0,0,1,.56-1.66A2.48,2.48,0,0,0,93.59,162,2.07,2.07,0,0,0,92,160l-.15,0a2.11,2.11,0,0,0-1.36.18,2.27,2.27,0,0,0-1.79,2.12,2,2,0,0,0,.52,1.34,7.23,7.23,0,0,0-.52,2.35,5.79,5.79,0,0,0-1.54,0h0c0-.06-.05-.11-.07-.17-.18-.53-.34-1.07-.52-1.6-.05-.15-.1-.31-.16-.46a2,2,0,0,0,.31-1.05,2.3,2.3,0,0,0-4.6,0,2.21,2.21,0,0,0,1.71,2.08c0,.26.06.52.1.79a9.07,9.07,0,0,0,.55,2l-.15.18-.19.23-.25-.26-.34-.35A9.24,9.24,0,0,0,82,166a2.33,2.33,0,0,0,0-.85,2,2,0,0,0-.65-1.24,2,2,0,0,0-1.06-.7,2.15,2.15,0,0,0-.77,0,2.18,2.18,0,0,0-1.07.41,2.4,2.4,0,0,0-.29.23,2.24,2.24,0,0,0-.51,2.85l.12.21a2.33,2.33,0,0,0,2.49,1c.6.68,1.23,1.46,1.91,2.13a12,12,0,0,0-1.74.41l-.12-.05a2.25,2.25,0,0,0-.35-.15h0l-.32-.07-.15,0H79l-.15,0-.32.07h0a1.82,1.82,0,0,0-1.16.9h0a2.26,2.26,0,0,0-.48,1.33,2.33,2.33,0,0,0,2.38,2.24,2.38,2.38,0,0,0,2.25-1.55l.17,0,1.26-.2a4.17,4.17,0,0,0,.43,1,6.66,6.66,0,0,0-1.67,1.88,3,3,0,0,0-.72-.33h0a5.19,5.19,0,0,0-2.69,1,2,2,0,0,0-.59,1.21,1.51,1.51,0,0,0,.2,1,1.23,1.23,0,0,0,.07.12A3.19,3.19,0,0,0,80.68,180.07ZM92.49,169.9a5.15,5.15,0,0,1,.24.59,3.23,3.23,0,0,1-.92,3.29,3.91,3.91,0,0,1-3.5.87,3.46,3.46,0,0,1-2.56-2.39,4.44,4.44,0,0,1,0-2.17,3.46,3.46,0,0,1,3.38-2.42A3.53,3.53,0,0,1,92.49,169.9Z"/><path class="cls-6" d="M97.06,173.94a3.05,3.05,0,0,0-.55.05,2.42,2.42,0,0,0-.88.34,2.46,2.46,0,0,0-1,2.55,2.33,2.33,0,0,0,1.08,1.57,2.62,2.62,0,0,0,1.38.37A2.44,2.44,0,1,0,97.06,173.94Zm.45,3.55,0,0Z"/><path class="cls-7" d="M97.55,177.47l0,0"/><path class="cls-8" d="M85.78,170.09a4.44,4.44,0,0,0,0,2.17,3.46,3.46,0,0,0,2.56,2.39,3.91,3.91,0,0,0,3.5-.87,3.23,3.23,0,0,0,.92-3.29,5.15,5.15,0,0,0-.24-.59,3.53,3.53,0,0,0-3.32-2.24A3.46,3.46,0,0,0,85.78,170.09Z"/><path class="cls-9" d="M489,137.66c-1-1.61-4-2.42-5.41-2.8-2.32-.6-5.3-1.3-7.17.67-1.55,1.64,0,3.62,1.59,4.45a14.12,14.12,0,0,0,7.95,1.57,5.94,5.94,0,0,0,3.41-1.27,1.89,1.89,0,0,0,.37-.54,20.12,20.12,0,0,0,8.83-2.31c-1.52,2.84-3.62,6.4-6.26,8.31-1.67-.43-3.7.24-5.2.87-1.82.77-4.7,2.27-4.53,4.64.19,2.73,3.55,2.94,5.5,2.22,2.39-.88,5.09-3,5.7-5.6a1.46,1.46,0,0,0,0-.31.6.6,0,0,0,.08-.93l-.07-.06c2.89-1.85,4.75-5.47,6.15-8.8v-3.56a10.86,10.86,0,0,1-1.21.68C495.61,136.41,492.32,136.92,489,137.66Z"/><path class="cls-9" d="M464.22,75.22c6.55,3.64,13.43,6.58,20,10.15A195.57,195.57,0,0,1,500,108.15v-5.66c-2.41-3.77-4.93-7.47-7.59-11.06,1.65-1.35,1-6.11.85-7.61a22,22,0,0,0-1.09-5.14c.69-1.94-.23-4.15-1.3-5.8-1.25-1.92-3.15-3.82-5.65-3.45-2.21.33-2.69,2.64-1.78,4.42,1.21,2.36,4,4.13,6.55,5a.87.87,0,0,0,.63.45,20.56,20.56,0,0,1,.86,5.88,21.74,21.74,0,0,1-.32,4.59h0c-3-4-6.23-7.87-9.62-11.56l-2.23-2.41c1.29-2.59,0-6.64-.65-9.2s-2.15-4.77-3.41-7.11c3.31-2.78-3-12.18-7-8.7s1.06,9.92,5.36,8.9c.76,2,1.81,3.84,2.67,5.91a20.57,20.57,0,0,1,1.4,6.76c0,.62,0,1.19.06,1.74A105.89,105.89,0,0,0,460,58.63a6.89,6.89,0,0,0-.21-1.61,2.46,2.46,0,0,0-.07-.46,4.54,4.54,0,0,0-.36-.86c-1.29-3.16-4.38-6.13-7.69-5.18-4.58,1.31-2.31,5.62.38,7.62a7.18,7.18,0,0,0,4.82,1.66,4.23,4.23,0,0,0,1.64-.52c8.09,5.92,15.36,13.69,21.76,21.3-1.1-.44-2.22-.86-3.32-1.3-3.87-1.55-7.69-3.32-11.45-5.18a.81.81,0,0,0-.12-.35c-.71-1.15-1.14-2.42-1.81-3.59a3.57,3.57,0,0,0-1.89-1.5c-1.41-.64-3.28-1.29-4.84-.89-3.37.87-2.51,5-.2,6.53C458.36,75.44,462.55,77.41,464.22,75.22Z"/><path class="cls-9" d="M493.59,65.76c-2,1.28-1.82,4.1-.38,5.78,1.68,2,4.4,2.59,6.79,3.32V68.54c-.26-.34-.52-.66-.77-1C498.07,66.17,495.43,64.57,493.59,65.76Z"/><path class="cls-9" d="M478.69,123.12a15.89,15.89,0,0,0-4.12-5.83c-1.92-1.66-5-1.77-6.54.5a5.92,5.92,0,0,0,.9,7.55c2.26,2,6.66,1,9.18-.08l.12.13a.69.69,0,0,0,1-.11,37.29,37.29,0,0,0,6.4,1.55c2.9.45,7.06,1.54,9.56-.5a.83.83,0,0,0,.28-.48c1.49.92,3,1.84,4.52,2.72v-2.93c-3-1.67-5.85-3.52-8.79-5.29.31-3.16-2.2-7.17-3.75-9.43a40.72,40.72,0,0,0-3.38-4.42,1.43,1.43,0,0,0,.15-.79A1.39,1.39,0,0,0,484,105c0-2.68-1.76-5.64-4.32-6.31-2-.53-4.76-.09-4.65,2.58a7.59,7.59,0,0,0,3.31,5.48,5.1,5.1,0,0,0,3.08,1.07,5,5,0,0,0,1.51-.33,36,36,0,0,1,5.7,11.3,143,143,0,0,1-12.74-8.35.75.75,0,0,0-.12-.26c-1.62-3.09-2.55-7.08-4.89-9.71-2-2.27-5.94-3-8.17-.53-3.61,4,5.7,11.44,10.43,10.63a3.35,3.35,0,0,0,.51.36,105.52,105.52,0,0,0,14.64,10.39l5.45,3.43C489.05,126.2,483.61,124.85,478.69,123.12Z"/><path class="cls-9" d="M1.65,72.24A6.76,6.76,0,0,0,0,68.54v6.33l.17,0A1.83,1.83,0,0,0,.45,75C2,77,3.45,79.16,4.88,81.28c1.22,1.8,2.32,4.41,3.94,6.08-.1,2.11-.29,4.23-.57,6.41C7.64,98.5,7.1,103.25,6.53,108c-.16,1.32-.47,2.72-.73,4.12q-1.08-1.92-2.2-3.81c-1.16-2-2.37-3.89-3.6-5.81v5.66q.94,1.6,1.86,3.23a223.31,223.31,0,0,1,10,20.18c-2.8-1.76-6-2.94-9-4.37-1-.49-2-1-2.93-1.54v2.93c1.55.9,3.11,1.77,4.7,2.59a6.79,6.79,0,0,0-1.48.79c-1.07.71-2.11,1.58-3.21,2.28v3.56c.2-.48.39-.95.57-1.4,2.17-1.23,4.29-2.67,6.41-4.09a62.44,62.44,0,0,0,6.33,2.64,183,183,0,0,1,10.36,34c.12.59,1,.43,1-.12.59-10.58-2.56-21-6.47-30.69A226.1,226.1,0,0,0,7.8,115.75c1.11-3.39,1.08-7.8,1.46-11,.27-2.3.63-4.62,1-6.94,5-1.85,7.9-8.06,9.81-13.55a13.18,13.18,0,0,0,3.14-2.62c1.49-1.85,3.56-4.63,2.9-7.2-.51-2-2.77-3.82-4.88-3.12-3.36,1.12-3.8,8.12-2.4,11.06a1.8,1.8,0,0,0-.47,1.45v0a52.4,52.4,0,0,1-3.43,6.31,68.5,68.5,0,0,1-4.37,5.43c.3-2.23.56-4.46.68-6.68A65.12,65.12,0,0,0,9.77,71.41c-.2-.89-.35-1.89-.57-2.87a8.84,8.84,0,0,0-.15-6.26c-.85-1.77-2.76-3.89-5-3.63C1.58,58.93.94,62,1.77,64A12.81,12.81,0,0,0,6.45,69.4a1.44,1.44,0,0,0,.73.25c0,.08,0,.15.05.23a.78.78,0,0,0,.69.59c.45,2.91.58,6,.76,8.14.13,1.49.19,3,.22,4.41-1-1.39-2.15-2.69-3-3.82-1.28-1.75-2.62-3.43-4-5.08A1.86,1.86,0,0,0,1.65,72.24Z"/><path class="cls-4" d="M446.16,407.37A8.88,8.88,0,0,0,445,393.49c-3.4-2.24-6.85-1.48-10.16.3,2.71-7.18,2-16.54-6.71-16.57-5.7,0-8.31,7.21-8.47,13.64-.73-1-1.52-2-2.2-2.94-2.08-2.83-2.82-2.9-5.62-5-4.94-3.79-10.5,1.06-11.07,6.84-.75,7.51,3.21,9.48,9.56,11.59.3.1.73.23,1.25.37a19.13,19.13,0,0,0-3.4,1.39,15.51,15.51,0,0,0-3.41,2.39,10.22,10.22,0,0,0-1.64,2,9.76,9.76,0,0,0,3,13.41c4.26,2.67,9.64-2.47,12.46-5.62l1-1.16c-.8,5.76-1.51,12.88,5.23,14.16,5.26,1,13.38-2.9,12.71-9.15-.33-3.07-2.47-5.67-3.87-8.22-.26-.47-.54-1-.83-1.44C437.67,410.83,442.94,410.49,446.16,407.37ZM434,406.06a7.93,7.93,0,0,1-1.4-.23,11.17,11.17,0,0,1-2.56-.09,10,10,0,0,1-2.34-.6c1.32,3.71,1.51,9.64-2.18,9.93-3.4.27-4-3.41-3.69-6.13-1.63,1.27-4.12,3.09-6.09,2.31-2.33-.93-1.37-4.24.23-5.7a11.33,11.33,0,0,1,5.68-2.65,9.64,9.64,0,0,1-4.27-1.74c-2.13-1.39-4.42-3-4.57-5.85-.17-3.32,4.26-2.23,5.71-1.47a17.14,17.14,0,0,1,5.4,4.16c-.07-4.17,2.23-10,5.42-8.6a1.89,1.89,0,0,1,.3.18,3.44,3.44,0,0,1,.56.2c2.18,1.1,2.17,4.42,1.65,6.62a12.31,12.31,0,0,1-.85,2.44c3.1-.12,6.61,1.23,6.43,4.48C437.3,405.28,435.72,406.18,434,406.06Z"/><path class="cls-10" d="M431,398.85a12.31,12.31,0,0,0,.85-2.44c.51-2.2.52-5.52-1.65-6.62a3.44,3.44,0,0,0-.56-.2,1.89,1.89,0,0,0-.3-.18c-3.19-1.44-5.5,4.43-5.42,8.6a17.14,17.14,0,0,0-5.4-4.16c-1.46-.77-5.88-1.85-5.71,1.47.15,2.87,2.43,4.46,4.57,5.85a9.64,9.64,0,0,0,4.27,1.74,11.33,11.33,0,0,0-5.68,2.65c-1.6,1.46-2.56,4.77-.23,5.7,2,.78,4.46-1,6.09-2.31-.28,2.72.29,6.4,3.69,6.13,3.69-.29,3.5-6.22,2.18-9.93a10,10,0,0,0,2.34.6,11.17,11.17,0,0,0,2.56.09,7.93,7.93,0,0,0,1.4.23c1.76.12,3.35-.78,3.46-2.73C437.58,400.08,434.08,398.73,431,398.85Zm-4.09,5.1c-.27,1.13-1.82,2.15-2.84,1.48a1.5,1.5,0,0,0-.31-.17,3.57,3.57,0,0,1-.83-.31,2.13,2.13,0,0,1-.71-.66,1.84,1.84,0,0,1-.05-2.62,9.22,9.22,0,0,1,.64-.67l0-.07a1.61,1.61,0,0,1,1.48-.83l.23-.1a1.68,1.68,0,0,1,2.3,1.47v0l0,.18c0,.12.06.25.08.37A4.72,4.72,0,0,1,426.89,404Z"/><path class="cls-11" d="M426.89,401.68l0-.18v0a1.68,1.68,0,0,0-2.3-1.47l-.23.1a1.61,1.61,0,0,0-1.48.83l0,.07a9.22,9.22,0,0,0-.64.67,1.84,1.84,0,0,0,.05,2.63,2.13,2.13,0,0,0,.71.66,3.57,3.57,0,0,0,.83.31,1.5,1.5,0,0,1,.31.17c1,.67,2.57-.34,2.84-1.48a4.72,4.72,0,0,0,.09-1.9C427,401.93,426.92,401.81,426.89,401.68Z"/><path class="cls-4" d="M404.62,55.29c-.53-5-8.74-7-13.09-8.06.48-.08,1-.16,1.44-.26,2.84-.6,7.89-2.64,4.9-6.15-2.86-3.34-10-2.35-13.79-2.07l-1.83.16a8.32,8.32,0,0,0,1.46-1.75,1.21,1.21,0,0,0-.28-1.65c-1.58-1.4-4.4-1-6.31-.87-.75.07-1.51.17-2.26.28a10.49,10.49,0,0,1-2.22,5,19.48,19.48,0,0,1,2.93-.72.56.56,0,0,1,.29,1.07,42.46,42.46,0,0,1-5.8,2,12.31,12.31,0,0,1-3.33,1.5c2.16.48,4.31,1,6.45,1.57l2.33.64c1.49-1.82,4.61-2.06,6.74-2.48,2.43-.48,5.09-1.22,7.55-.67a.37.37,0,0,1-.09.74,34.68,34.68,0,0,0-7.28,1.24c-1.81.39-3.53,1.09-5.27,1.63,7.49,2.09,15.21,4.49,21.95,8.12a.37.37,0,0,1-.28.69c-7.33-2-14.37-4.87-21.66-7.07a26.41,26.41,0,0,1,3.37,3.06c1.82,1.84,4.12,3.06,6,4.9.44.45-.1,1.23-.62.81-3.7-3-8.33-5.08-11.08-9.19a.43.43,0,0,1-.07-.29c-1.07-.3-2.15-.58-3.24-.84q-1.89-.45-3.79-.86c2.71,2.28,5.36,4.65,8,7,.17.15,0,.5-.22.38a38.24,38.24,0,0,1-10.36-8q-2.7-.55-5.41-1l-.27,0a15.07,15.07,0,0,1,4.26,4.92c.12.24-.19.42-.38.29-2.51-1.67-4.54-3.88-7-5.67l-.41-.05c.29.49.58,1,.84,1.46,1.43,2.6,3.5,5.24,4.31,8.23.36.31.68.59.92.77,1.64,1.27,4.71,3.73,7,2.84a1.64,1.64,0,0,0,1-1.57l.39.22c1.39.94,2.79,1.84,4.26,2.66,1.68.93,6.23,3.53,8.28,2a1.85,1.85,0,0,0,.67-2.11c3.79,2.51,9.64,5.91,11.47,3.11.9-1.38-.44-3.28-2.09-4.92l.3.11C395.64,57.35,405.2,60.79,404.62,55.29Z"/><path class="cls-12" d="M370.07,42.32a42.46,42.46,0,0,0,5.8-2,.56.56,0,0,0-.29-1.07,19.48,19.48,0,0,0-2.93.72,11.66,11.66,0,0,1-1,1.11A10.67,10.67,0,0,1,370.07,42.32Z"/><path class="cls-12" d="M355.92,43.75l.41.05c2.42,1.79,4.45,4,7,5.67.19.13.5-.06.38-.29a15.07,15.07,0,0,0-4.26-4.92,24.21,24.21,0,0,1-3.63-.75Z"/><path class="cls-12" d="M359.68,44.29q2.71.44,5.41,1a38.24,38.24,0,0,0,10.36,8c.23.13.39-.22.22-.38-2.6-2.39-5.25-4.76-8-7q1.9.41,3.79.86c1.09.26,2.17.54,3.24.84a.43.43,0,0,0,.07.29c2.75,4.11,7.38,6.18,11.08,9.19.52.42,1.07-.36.62-.81-1.83-1.84-4.13-3.06-6-4.9a26.41,26.41,0,0,0-3.37-3.06c7.28,2.19,14.33,5,21.66,7.07a.37.37,0,0,0,.28-.69c-6.74-3.63-14.46-6-21.95-8.12,1.74-.54,3.46-1.24,5.27-1.63a34.68,34.68,0,0,1,7.28-1.24.37.37,0,0,0,.09-.74c-2.46-.55-5.12.19-7.55.67-2.14.42-5.26.66-6.74,2.48l-2.33-.64c-2.14-.58-4.29-1.09-6.45-1.57A18.08,18.08,0,0,1,359.68,44.29Z"/><path class="cls-13" d="M122.44,299.24a2.1,2.1,0,0,0-.61-2.07c-3.43-2.68-8.24-3.28-13.16-2.84.18-.13.36-.24.54-.37,3.43-2.58,12.37-10.07,10.18-15.44-2.28-5.6-8.47-3.26-11.62,0l-2.05,2.12a48.6,48.6,0,0,0,2.42-7.11c.8-3.15,3.65-11.7-1-13.51-6-2.32-8.91,7.61-9.89,11.27A42.49,42.49,0,0,1,95.14,277c1.39-6.18,2.5-14.13-2.1-18.49a1.8,1.8,0,0,0-2.75.33c-2.39,3.6-3.22,7.92-3.8,12.26a19.71,19.71,0,0,0-4.1-9.4,1.7,1.7,0,0,0-2.6.31c-3.21,4.55-3,10.39-2.52,15.8a27.73,27.73,0,0,0-8.66-6.92,1.67,1.67,0,0,0-2.23.56c-3.08,6.85.53,16,4.31,22.08a6.79,6.79,0,0,0,.46.64l2.77.85c-1.71-3.51-2.42-7.5-1.29-10.59.22-.61,1.31-.79,1.47,0a42.17,42.17,0,0,0,1.57,5.72,1.75,1.75,0,0,1,1.86.5l.51.62c.08-.61.17-1.22.25-1.82.68-4.9.57-11.12,3.34-15.34.27-.42,1.05-.29,1,.27-.12,4.24-.68,8.52-1.18,12.73-.11.88-.16,1.77-.21,2.67a2.05,2.05,0,0,1,2.73.5c2.18-5.56,4.87-11,6.64-16.42a1,1,0,0,1,1.84.47c-1.48,6.54-3.92,12.79-5.92,19.18-.18.58-.33,1.2-.48,1.84.35-.33.71-.64,1.08-.94a2.24,2.24,0,0,1,1.4-.49C93.75,288,99,281.87,102,275c.28-.63,1.45-.33,1.38.36-.65,6.84-6.34,11.88-10.31,17.14-.68.9-1.32,1.94-2,3a39.51,39.51,0,0,0,3.71-1.66c5.32-2.81,10.27-6.25,15.44-9.28.78-.46,1.75.68,1,1.26a124.24,124.24,0,0,1-13.59,9.56,54.51,54.51,0,0,1-8.58,4.38,7.41,7.41,0,0,1-.56.54c1.68,0,3.37,0,5,0a2.29,2.29,0,0,1,1.05.25,106.9,106.9,0,0,0,17.75-1.5.81.81,0,0,1,.66,1.47c-4.3,2.51-11,2.5-16,3l-1.83.19a2.18,2.18,0,0,1-1,.64c-.6.2-1.19.36-1.77.5a19.53,19.53,0,0,1,2.68,2.63,38.05,38.05,0,0,0,11,.44C111.84,307.31,120.82,305.61,122.44,299.24Z"/><path class="cls-14" d="M90.66,295.79a5.41,5.41,0,0,1-1.55,4,54.51,54.51,0,0,0,8.58-4.38,124.24,124.24,0,0,0,13.59-9.56c.73-.58-.24-1.72-1-1.26-5.18,3-10.13,6.47-15.44,9.28a39.51,39.51,0,0,1-3.71,1.66c.66-1.07,1.3-2.11,2-3,4-5.26,9.65-10.3,10.31-17.14.07-.69-1.1-1-1.38-.36-3,6.84-8.25,13-13.43,18.88A2,2,0,0,1,90.66,295.79Z"/><path class="cls-14" d="M74.26,291.51a2,2,0,0,1,1.42-1.34,42.17,42.17,0,0,1-1.57-5.72c-.16-.79-1.25-.61-1.47,0-1.13,3.09-.42,7.08,1.29,10.59l.5.16A7.19,7.19,0,0,1,74.26,291.51Z"/><path class="cls-14" d="M80.81,290.36a1.32,1.32,0,0,1,.48-.56c0-.89.1-1.78.21-2.67.5-4.21,1.06-8.49,1.18-12.73,0-.56-.76-.68-1-.27-2.78,4.22-2.66,10.45-3.34,15.34-.08.6-.17,1.21-.25,1.82.67.8,1.32,1.6,1.93,2.44A11.73,11.73,0,0,1,80.81,290.36Z"/><path class="cls-14" d="M85.14,296.25l1-.9c.14-.64.3-1.26.48-1.84,2-6.39,4.45-12.63,5.92-19.18a1,1,0,0,0-1.84-.47c-1.77,5.39-4.46,10.87-6.64,16.42l.06.08A10.47,10.47,0,0,1,85.14,296.25Z"/><path class="cls-14" d="M95.24,303.72l1.83-.19c5-.49,11.7-.48,16-3a.81.81,0,0,0-.66-1.47,106.9,106.9,0,0,1-17.75,1.5A2.07,2.07,0,0,1,95.24,303.72Z"/><path class="cls-15" d="M92.49,304.85c.59-.14,1.17-.3,1.77-.5a2.18,2.18,0,0,0,1-.64,2.07,2.07,0,0,0-.58-3.15,2.29,2.29,0,0,0-1.05-.25c-1.67,0-3.36,0-5,0a7.41,7.41,0,0,0,.56-.54,5.41,5.41,0,0,0,1.55-4,2,2,0,0,0-2.09-1.87,2.24,2.24,0,0,0-1.4.49c-.37.3-.73.62-1.08.94l-1,.9a10.47,10.47,0,0,0-1.05-5.88l-.06-.08a2.05,2.05,0,0,0-2.73-.5,1.32,1.32,0,0,0-.48.56,11.73,11.73,0,0,0-.83,3.37c-.61-.84-1.27-1.64-1.93-2.44l-.51-.62a1.75,1.75,0,0,0-1.86-.5,2,2,0,0,0-1.42,1.34,7.19,7.19,0,0,0,.17,3.69l-.5-.16-2.77-.85-.41-.12c-1.45-.45-2.94,1.32-2,2.57,1.73,2.27,4.59,3.92,7.13,5.2a25.41,25.41,0,0,0,3.51,1.54c-1,2.75-3.73,5.47-5.38,7.18-2.48,2.57-5.1,5-7.34,7.81a1,1,0,0,0,1,1.56c3.78-.75,13.35-8.64,15.36-14.8,3.55,2.45,6.95,6.34,11.38,5.56a1.86,1.86,0,0,0,1.13-2.79l-.35-.42A19.53,19.53,0,0,0,92.49,304.85Z"/><path class="cls-4" d="M355.92,43.75l-.14-.24a24.21,24.21,0,0,0,3.63.75l.27,0a18.08,18.08,0,0,0,7.06-.47,12.31,12.31,0,0,0,3.33-1.5,10.67,10.67,0,0,0,1.58-1.25,11.66,11.66,0,0,0,1-1.11,10.47,10.47,0,0,0-2.38-15.35c-4.05-2.65-8.17-1.75-12.11.35,3.23-8.52,2.34-19.61-8-19.64-6.8,0-9.9,8.55-10.1,16.18-.88-1.22-1.81-2.38-2.63-3.48-2.48-3.36-3.37-3.43-6.7-6-5.89-4.49-12.51,1.25-13.2,8.1-.9,8.9,3.82,11.24,11.4,13.74.36.12.87.27,1.49.44a20.4,20.4,0,0,0-8.13,4.48,11.53,11.53,0,0,0,1.61,18.26c5.07,3.17,11.5-2.93,14.86-6.66L340,49c-1,6.83-1.8,15.27,6.24,16.79,6.27,1.19,16-3.44,15.15-10.85a9.85,9.85,0,0,0-.3-1.52c-.81-3-2.88-5.63-4.31-8.23C356.5,44.74,356.22,44.24,355.92,43.75ZM347,50.21c-4.05.32-4.73-4-4.4-7.26-1.94,1.51-4.92,3.67-7.26,2.74-2.78-1.1-1.64-5,.27-6.76a13.54,13.54,0,0,1,6.77-3.14,11.53,11.53,0,0,1-5.09-2.06c-2.54-1.64-5.27-3.53-5.45-6.93-.2-3.94,5.08-2.65,6.81-1.74A20.42,20.42,0,0,1,345.08,30c-.09-4.95,2.66-11.91,6.47-10.2a2.25,2.25,0,0,1,.36.21,4.11,4.11,0,0,1,.67.24c2.59,1.3,2.58,5.24,2,7.85a14.54,14.54,0,0,1-1,2.89c3.7-.14,7.88,1.46,7.67,5.32-.12,2.3-2,3.38-4.12,3.23a9.5,9.5,0,0,1-1.66-.27,13.38,13.38,0,0,1-3-.1,12,12,0,0,1-2.8-.71C351.16,42.83,351.39,49.86,347,50.21Z"/><path class="cls-10" d="M349.58,38.43a12,12,0,0,0,2.8.71,13.38,13.38,0,0,0,3,.1,9.5,9.5,0,0,0,1.66.27c2.1.14,4-.93,4.12-3.23.21-3.85-4-5.46-7.67-5.32a14.54,14.54,0,0,0,1-2.89c.61-2.61.62-6.55-2-7.85a4.11,4.11,0,0,0-.67-.24,2.25,2.25,0,0,0-.36-.21C347.74,18.07,345,25,345.08,30A20.42,20.42,0,0,0,338.65,25c-1.74-.91-7-2.2-6.81,1.74.17,3.41,2.9,5.29,5.45,6.93a11.53,11.53,0,0,0,5.09,2.06,13.54,13.54,0,0,0-6.77,3.14c-1.91,1.73-3.05,5.65-.27,6.76,2.34.93,5.31-1.23,7.26-2.74-.33,3.22.35,7.58,4.4,7.26C351.39,49.86,351.16,42.83,349.58,38.43Zm-4.3.34a1.8,1.8,0,0,0-.37-.2,4.27,4.27,0,0,1-1-.36,2.53,2.53,0,0,1-.84-.78,2.17,2.17,0,0,1-.06-3.11,11,11,0,0,1,.76-.79l0-.08a1.92,1.92,0,0,1,1.77-1l.27-.12a2,2,0,0,1,2.74,1.74v0l.06.21c0,.15.07.29.09.44a5.56,5.56,0,0,1-.1,2.25C348.34,38.36,346.49,39.57,345.28,38.77Z"/><path class="cls-11" d="M348.67,37a5.56,5.56,0,0,0,.1-2.25c0-.15-.06-.3-.09-.44l-.06-.21v0a2,2,0,0,0-2.74-1.74l-.27.12a1.92,1.92,0,0,0-1.77,1l0,.08a11,11,0,0,0-.76.79,2.17,2.17,0,0,0,.06,3.11,2.53,2.53,0,0,0,.84.78,4.27,4.27,0,0,0,1,.36,1.8,1.8,0,0,1,.37.2C346.49,39.57,348.34,38.36,348.67,37Z"/><path class="cls-4" d="M43,.7c3.79,4.85,9.7,9.37,15.67,10.93h0a2.44,2.44,0,0,0,.36.12,67.26,67.26,0,0,0,10,8c5.51,3.54,13.44,6.93,20.11,5.07,2.44,1.7,4.9,3.36,7.36,5,.71.47,1.44.95,2.2,1.43a.41.41,0,0,0,.18.29c4.87,3.39,10.39,4.61,16.12,5.78.88.18,1.76.37,2.65.57a16.43,16.43,0,0,1-4.93-3.5l-.32,0a.35.35,0,0,0-.28-.32c-7-2.1-13.67-5.87-19.93-10.19C90.24,20.71,87.77,18,85.72,15a102,102,0,0,1-7-12.77L77.57,0H75.44c1.16,2.54,2.29,5.09,3.47,7.6A72.39,72.39,0,0,0,84.6,18.25c-1.92-1.49-3.79-3-5.62-4.44A107.18,107.18,0,0,1,65,.2L64.93,0H62.39A115.17,115.17,0,0,0,78.78,17c2.61,2.17,5.34,4.24,8.12,6.24a59.56,59.56,0,0,1-6.11-.81,37.43,37.43,0,0,1-11.72-5.09A68.89,68.89,0,0,1,59.5,10c-1.82-3.22-5-6.37-7.17-9.18L51.68,0h-9.2C42.66.26,42.83.5,43,.7Z"/><path class="cls-4" d="M109.58,24.3c-1.3-.88-2.57-1.82-3.86-2.86-2.08-1.67-4.19-3.33-6.19-5.09-2.3-3.87-4.89-7.63-7.21-11.5A25.51,25.51,0,0,0,88.86,0H84.37C81,4.8,94.8,15.44,97.36,17.37a.27.27,0,0,0,.4-.08,87.19,87.19,0,0,0,7.41,6.52,47,47,0,0,0,4.5,3.46A20.85,20.85,0,0,1,109.58,24.3Z"/><path class="cls-4" d="M110.21,19.86c-2.29-3.41-4.4-6.92-6.65-10.36A71.21,71.21,0,0,0,100.06,0H93.52a41.32,41.32,0,0,0,7,8.15c3.15,5,5.87,10.26,9.09,15.23,0-.27,0-.52.05-.8A15.88,15.88,0,0,1,110.21,19.86Z"/><path class="cls-4" d="M113,14.3l-.07-.2q-.53-1.55-1.11-3.08a.4.4,0,0,0,.24-.33A58.3,58.3,0,0,0,110.5,0h-7.18a56.63,56.63,0,0,0,5.83,10.29l.52,1.43c.62,1.7,1.18,3.4,1.73,5.1A15.4,15.4,0,0,1,113,14.3Z"/><path class="cls-4" d="M117.6,37.85a55.71,55.71,0,0,0,6.92,2.7c.47.16,1.14.36,1.94.58A26.49,26.49,0,0,0,115.88,47,15.13,15.13,0,0,0,118,70.85c6.6,4.14,15-3.83,19.32-8.71l1.61-1.8c-1.24,8.93-2.34,20,8.11,22a17,17,0,0,0,6.73-.22,21.34,21.34,0,0,0,4.3-1.44c5.16-2.37,9.29-6.82,8.67-12.53-.51-4.76-3.83-8.79-6-12.75-.4-.73-.83-1.48-1.28-2.23,7.47,2.17,15.64,1.65,20.63-3.19a13.76,13.76,0,0,0-1.79-21.52c-5.27-3.47-10.62-2.29-15.75.46,4.2-11.14,3-25.65-10.41-25.69a9.37,9.37,0,0,0-4.14.93,10.57,10.57,0,0,0-2.87,2.06c-4,4-6,11.37-6.13,18.17-1.14-1.59-2.36-3.11-3.42-4.55-3.22-4.39-4.38-4.49-8.71-7.81a8.82,8.82,0,0,0-9.82-1,12.48,12.48,0,0,0-4,3.37,15.4,15.4,0,0,0-1.62,2.53,16.18,16.18,0,0,0-1.19,3,15.88,15.88,0,0,0-.52,2.71c0,.28,0,.53-.05.8s0,.63-.06.93a20.85,20.85,0,0,0,.09,3,11.79,11.79,0,0,0,3,7.08A16.43,16.43,0,0,0,117.6,37.85ZM137.15,29a26.58,26.58,0,0,1,8.37,6.44c-.11-6.47,3.46-15.58,8.41-13.34a2.93,2.93,0,0,1,.47.27,5.34,5.34,0,0,1,.87.31c3.37,1.7,3.36,6.85,2.57,10.26a19.09,19.09,0,0,1-1.32,3.78c4.81-.19,10.25,1.91,10,7-.16,3-2.62,4.41-5.36,4.23a12.29,12.29,0,0,1-2.16-.36,17.32,17.32,0,0,1-4-.13,15.49,15.49,0,0,1-3.64-.93c2,5.76,2.35,15-3.38,15.41-5.27.42-6.15-5.29-5.72-9.5-2.52,2-6.39,4.79-9.44,3.58-3.62-1.44-2.13-6.57.35-8.84A17.57,17.57,0,0,1,142,43a15,15,0,0,1-6.63-2.69c-3.31-2.15-6.86-4.61-7.08-9.07C128,26.1,134.89,27.79,137.15,29Z"/><path class="cls-10" d="M135.37,40.32A15,15,0,0,0,142,43a17.57,17.57,0,0,0-8.81,4.11c-2.48,2.27-4,7.39-.35,8.84,3,1.21,6.91-1.61,9.44-3.58-.43,4.21.45,9.92,5.72,9.5,5.73-.45,5.43-9.65,3.38-15.41a15.49,15.49,0,0,0,3.64.93,17.32,17.32,0,0,0,4,.13,12.29,12.29,0,0,0,2.16.36c2.74.19,5.2-1.21,5.36-4.23.27-5-5.16-7.14-10-7a19.09,19.09,0,0,0,1.32-3.78c.79-3.41.81-8.57-2.57-10.26a5.34,5.34,0,0,0-.87-.31,2.93,2.93,0,0,0-.47-.27c-5-2.24-8.52,6.87-8.41,13.34A26.58,26.58,0,0,0,137.15,29c-2.26-1.19-9.13-2.87-8.86,2.28C128.51,35.71,132.06,38.17,135.37,40.32Zm7.46.77a14.29,14.29,0,0,1,1-1l.05-.1a2.49,2.49,0,0,1,2.3-1.29l.36-.16a2.6,2.6,0,0,1,3.57,2.27l0,.06.07.28c0,.19.09.38.12.58a7.31,7.31,0,0,1-.13,2.94c-.42,1.76-2.83,3.33-4.4,2.29a2.33,2.33,0,0,0-.48-.26,5.54,5.54,0,0,1-1.28-.48,3.3,3.3,0,0,1-1.1-1A2.85,2.85,0,0,1,142.83,41.09Z"/><path class="cls-11" d="M144,46.18a5.54,5.54,0,0,0,1.28.48,2.33,2.33,0,0,1,.48.26c1.57,1,4-.53,4.4-2.29a7.31,7.31,0,0,0,.13-2.94c0-.2-.08-.39-.12-.58l-.07-.28,0-.06a2.6,2.6,0,0,0-3.57-2.27l-.36.16a2.49,2.49,0,0,0-2.3,1.29l-.05.1a14.29,14.29,0,0,0-1,1,2.85,2.85,0,0,0,.08,4.07A3.3,3.3,0,0,0,144,46.18Z"/><path class="cls-4" d="M55.13,481.37c-2.06-4.05-4.51-9.8-8.94-11.67A1,1,0,0,0,45,470c-3.69,4.34,1.41,11.23,3.91,14.83,3.38,4.85,7.61,10.16,12.44,13.89l1,1.27h2.54C61.46,493.9,58.31,487.63,55.13,481.37Z"/><path class="cls-4" d="M74.84,494.74c-.19-4.57-2.9-9.48-4.72-13.48-1.08-2.37-3.42-8.88-6.89-8.57-7.76.68,7.58,19.22,9.16,21.06a.49.49,0,0,0,.12.09c1,2,2,4.1,2.94,6.17h2.13C76.68,498.22,75.78,496.46,74.84,494.74Z"/><path class="cls-4" d="M89.55,486.79c-2.9,1,0,7.48,4,13.21h6.54C97.09,493.19,92.82,485.62,89.55,486.79Z"/><path class="cls-4" d="M43.1,493c-4.08.4-2.15,4.69-.62,7h9.2C49.71,497.33,46.36,492.71,43.1,493Z"/><path class="cls-4" d="M103.6,489.21c-3.41.78-2.48,5.69-.29,10.79h7.18C109.14,494.22,106.88,488.46,103.6,489.21Z"/><path class="cls-4" d="M85.64,498.88A3.73,3.73,0,0,0,84.37,500h4.49C87.8,499,86.66,498.31,85.64,498.88Z"/><path class="cls-16" d="M336.09,262.86l-.06,0a13.3,13.3,0,0,0-1.17-4.68,10.34,10.34,0,0,0-2.31-3.74,2.51,2.51,0,0,1-.52.66,1.39,1.39,0,0,1-.19.12,15.57,15.57,0,0,1,2,4.11,15.16,15.16,0,0,1,.44,2.67c-.65-.33-1.3-.66-1.94-1a61.26,61.26,0,0,1-6.46-4.05c.64-1.88-.27-4.43-.93-6.11a11.29,11.29,0,0,0-2-3.39h0a1.75,1.75,0,0,1-.2.28,2.74,2.74,0,0,1-.71.56,13.54,13.54,0,0,1,1.68,3.11,20.81,20.81,0,0,1,.81,4.55q-1.84-1.36-3.62-2.79c-2.72-2.18-5.16-4.71-7.76-7a2.42,2.42,0,0,1-.86.73,73.29,73.29,0,0,0,7.85,7.37q1.78,1.52,3.66,2.93c-1.5-.17-3.06-.16-4.53-.4a16.8,16.8,0,0,1-5.31-1.65l0,.08s0,.06,0,.08a2,2,0,0,1-.27.75,19.17,19.17,0,0,0,3.85,1.62c2.21.8,5.4,1.41,7.8.62a69.11,69.11,0,0,0,7.39,4.63A15.79,15.79,0,0,1,336.09,262.86Z"/><path class="cls-16" d="M344.61,263.13a13.21,13.21,0,0,0-1.91-2.66,2.32,2.32,0,0,1-.71.5,22.22,22.22,0,0,1,1.43,2.7c.05.12.09.25.13.37l1.72.41C345.06,264,344.83,263.53,344.61,263.13Z"/><path class="cls-16" d="M330,265a14.68,14.68,0,0,1-3.48.11,2.87,2.87,0,0,1-.22,1,12,12,0,0,0,4.3.13l.53-.1a5.29,5.29,0,0,1-.12-1.32C330.63,264.92,330.29,265,330,265Z"/><path class="cls-17" d="M342.7,260.47a2.59,2.59,0,0,0,.66-1.25,2.25,2.25,0,0,0-.3-1.55,2.34,2.34,0,0,0-.88-1l-.16-.13a2.55,2.55,0,0,0-3.35.5,2.05,2.05,0,0,0,0,2.57,2.71,2.71,0,0,0,1.63,1.53A2.38,2.38,0,0,0,342,261,2.32,2.32,0,0,0,342.7,260.47Z"/><path class="cls-17" d="M326.45,264.59a1.72,1.72,0,0,0-.82-1.25l-.13-.14a3.11,3.11,0,0,0-3.88-.16,2.82,2.82,0,0,0-.4,3.92,3.15,3.15,0,0,0,3.58.68,2.72,2.72,0,0,0,1.46-1.51,2.87,2.87,0,0,0,.22-1A2.63,2.63,0,0,0,326.45,264.59Z"/><path class="cls-17" d="M332.56,254.41a2.56,2.56,0,0,0-.06-2.57,2.2,2.2,0,0,0-.84-.77,3.48,3.48,0,0,0-1.25-.47.89.89,0,0,0-.65.16,2.54,2.54,0,0,0-1.09.44c-1.41,1-.69,3.45.72,4a1.93,1.93,0,0,0,1.08.1,1.48,1.48,0,0,0,1.38-.13,1.39,1.39,0,0,0,.19-.12A2.51,2.51,0,0,0,332.56,254.41Z"/><path class="cls-17" d="M313.9,255.15l0-.08a2.43,2.43,0,0,0,.29-.91,3.82,3.82,0,0,0-.67-2.57c-1.09-1.34-2.78-.47-3.6.68a3.43,3.43,0,0,0-.38,3.84,2.34,2.34,0,0,0,2,.9,2.42,2.42,0,0,0,2.07-1,2,2,0,0,0,.27-.75S313.89,255.17,313.9,255.15Z"/><path class="cls-17" d="M313.12,246.1a3.14,3.14,0,0,0,.51-1c.39-1.36-.34-3.23-1.85-3.46.33.05-.56-.12-.31-.07l-.28,0a2.36,2.36,0,0,0-.68,0,2.2,2.2,0,0,0-1.27.77,2.09,2.09,0,0,0-.45.88,2.7,2.7,0,0,0,.76,3.39A2.59,2.59,0,0,0,312,247a1.89,1.89,0,0,0,.27-.13A2.42,2.42,0,0,0,313.12,246.1Z"/><path class="cls-17" d="M322.92,247.42h0l.22-.41,0-.09q-.21.34.1-.21a2.5,2.5,0,0,0,0-1.79,3,3,0,0,0-.9-1.26,2.45,2.45,0,0,0-1.47-.52h-.13l-.05,0a1.38,1.38,0,0,0-1.66.05,3,3,0,0,0-.67,4.38,2.84,2.84,0,0,0,3.56.74,2.74,2.74,0,0,0,.71-.56A1.75,1.75,0,0,0,322.92,247.42Z"/><path class="cls-9" d="M139.21,392.36c1.3.65,2.69,1.2,4.06,1.77,0,.15.05.29.08.44.5-.47,1-.92,1.52-1.34-.15-.92-.33-1.83-.45-2.72-.36-2.62-.38-5.25-.51-7.89,1.62-.88,2.75-3.4,3.34-4.88a23.73,23.73,0,0,0,1-3.07.83.83,0,0,0,.43-.19.81.81,0,0,0,.26-.36,3.82,3.82,0,0,0,1.64-4.14c-.4-1.14-1.51-2.33-2.76-1.41a4.42,4.42,0,0,0-1.57,3.38,3,3,0,0,0,.49,1.83,2.88,2.88,0,0,0,.65.62,21,21,0,0,1-3.61,6.43,83.29,83.29,0,0,1-.11-8.87.43.43,0,0,0,.09-.14c1-1.79,2.59-3.54,3.1-5.52.44-1.72-.47-3.85-2.41-4.12-3.12-.43-3.67,6.48-1.74,8.5a2,2,0,0,0,0,.36,61.47,61.47,0,0,0-.26,10.45c0,1.24.07,2.49.11,3.75-2.22-1.77-3.34-4.84-4.11-7.78a9.26,9.26,0,0,0,1.48-3.89,2.55,2.55,0,0,0-2.37-3,3.45,3.45,0,0,0-3.36,2.89c-.24,1.75,1.68,3.55,3,4.41l0,.1a.4.4,0,0,0,.39.46A21.73,21.73,0,0,0,139,382c.73,1.55,1.55,3.91,3.35,4.46a.48.48,0,0,0,.32,0c.08,2.06.2,4.13.43,6.18a4,4,0,0,0-.86-.46,22.42,22.42,0,0,1-2.87-1.17,25.89,25.89,0,0,1-4.51-3.83c.44-1-.12-2.7-.41-3.53-.46-1.32-1.1-3-2.66-3.25-1.3-.22-1.74,1.19-1.63,2.22A8.23,8.23,0,0,0,132,387a3.46,3.46,0,0,0,1.72,1.23,1.1,1.1,0,0,0,.38,0,11.72,11.72,0,0,0,4,3.51,17.32,17.32,0,0,1-5.18-.08q.29.56.55,1.14A15.81,15.81,0,0,0,139.21,392.36Z"/><path class="cls-9" d="M173.6,375.66c.37-.39.8-.78,1.2-1.21a5.15,5.15,0,0,0,3-2.11c.58-1,1-2.6.14-3.58s-2.64-.44-3.34.62a7.46,7.46,0,0,0-1.1,4,.84.84,0,0,0,.11.44l-.09.1a.45.45,0,0,0-.06.52c-1.26,1.16-2.69,2.22-3.68,3-.68.55-1.37,1.05-2.06,1.54.35-.93.6-1.91.88-2.68.43-1.19.81-2.38,1.15-3.59a1.08,1.08,0,0,0,.82-.74,4.93,4.93,0,0,0,1.47-2.69c.3-1,.21-2.81-1-3.31a2.27,2.27,0,0,0-2.92,1.7c-.41,1.49.21,3,.63,4.46a1.06,1.06,0,0,0,.07.16c-.51,1.41-1.05,2.81-1.61,4.19a24.64,24.64,0,0,0-1.65,3.88c-1.05.64-2.14,1.24-3.28,1.81-2.49,1.25-5,2.53-7.44,3.79-.69.35-1.46.66-2.23,1q.58-1.15,1.12-2.3a116.79,116.79,0,0,0,4.51-10.9c1.19.36,3.28-1.5,4-2.07a12.85,12.85,0,0,0,2.13-2.2,4,4,0,0,0,2.38-2.52c.52-1.23.82-2.76-.17-3.85s-2.15-.44-2.71.58a6.78,6.78,0,0,0-.27,4.79.51.51,0,0,0,0,.45A12,12,0,0,1,161,371.3a12.66,12.66,0,0,1-2.32,1.34h0c.94-2.77,1.77-5.57,2.46-8.41q.22-.92.44-1.86c1.67-.22,3.22-2.15,4.24-3.31a19.32,19.32,0,0,0,2.33-4c2.42.7,4.93-5.39,1.91-6.23s-4.45,3.74-2.56,5.49c-.71,1-1.27,2.13-2,3.21a12,12,0,0,1-2.81,2.88l-.82.6a61.69,61.69,0,0,0,1.72-13.58,4,4,0,0,0,.71-.62,1.43,1.43,0,0,0,.2-.18,2.64,2.64,0,0,0,.3-.45c1.11-1.65,1.53-4.11,0-5.4-2.13-1.79-3.47.71-3.56,2.66a4.18,4.18,0,0,0,.76,2.87,2.46,2.46,0,0,0,.78.62,75.82,75.82,0,0,1-3.21,17.45c-.14-.68-.31-1.35-.45-2-.51-2.37-.9-4.8-1.22-7.22A.47.47,0,0,0,158,355c.33-.72.8-1.34,1.14-2a2.08,2.08,0,0,0,.11-1.4,4.57,4.57,0,0,0-1.15-2.63c-1.52-1.35-3.23.41-3.22,2,0,1.19.42,3.85,2,3.95.37,4.35,1.19,8.63,1.6,13a111.86,111.86,0,0,1-6.83,17q-1.58,3.12-3.29,6.11A12.54,12.54,0,0,1,151,390c.16-.3.33-.59.48-.88,2-.57,4.12-2,5.79-2.87,1.2-.62,2.44-1.2,3.66-1.79,2.51,1.8,6.47,1.2,9.74.33a7.68,7.68,0,0,0,2.29.66c1.38.12,3.4.21,4.42-.94a2.43,2.43,0,0,0-.08-3.37c-1.64-1.26-5.16.81-6.12,2.44a1.05,1.05,0,0,0-.85.25h0a30.51,30.51,0,0,1-4.17.39,39.91,39.91,0,0,1-4-.34c1.17-.58,2.33-1.18,3.45-1.85A37.94,37.94,0,0,0,173.6,375.66Z"/><path class="cls-18" d="M144.87,393.23c-.52.42-1,.86-1.52,1.34A31.36,31.36,0,0,0,135.77,406a25.63,25.63,0,0,1-1.19,6.4s0,.06,0,.1a10.36,10.36,0,0,1,1.6.43c.59-2.1,2.07-4,3.18-5.87a36,36,0,0,1,6.65-8.72.79.79,0,0,1,1.21.9,84.08,84.08,0,0,1-4.83,8.41c-1.18,2-2.08,4.7-3.63,6.59l.42.29a45.25,45.25,0,0,0,4.25-4.25c2.79-2.82,6.31-5.11,8.2-8.71.4-.76,1.8-.61,1.6.39-.84,4.13-4.21,6.84-7.13,9.63-1.64,1.57-3.11,3.53-5,4.79l.23.26c.06.07.1.15.15.22,1.61-1.3,3.71-2.14,5.39-3.26a40.21,40.21,0,0,0,8.17-7.56c.48-.57,1.54-.08,1.2.66a23,23,0,0,1-6.89,8.16c-1.81,1.46-4.24,3.4-6.7,4,.15.32.27.64.38,1,.29,0,.59-.07.9-.13a17.15,17.15,0,0,1,6.12-2.16,24,24,0,0,0,2.54-1.4c5.85-3.9,13.64-11.93,9.59-19.67-3-5.8-7.08-7.37-11.14-6.44a12.54,12.54,0,0,0-2.62.93A18.55,18.55,0,0,0,144.87,393.23Z"/><path class="cls-19" d="M149.35,414.89a23,23,0,0,0,6.89-8.16c.35-.74-.72-1.23-1.2-.66a40.21,40.21,0,0,1-8.17,7.56c-1.68,1.12-3.77,2-5.39,3.26a10.49,10.49,0,0,1,1.16,2C145.12,418.29,147.54,416.35,149.35,414.89Z"/><path class="cls-19" d="M141.1,416.4c1.87-1.25,3.34-3.22,5-4.79,2.92-2.79,6.29-5.5,7.13-9.63.2-1-1.2-1.15-1.6-.39-1.89,3.6-5.4,5.89-8.2,8.71a45.25,45.25,0,0,1-4.25,4.25A11.9,11.9,0,0,1,141.1,416.4Z"/><path class="cls-19" d="M142.38,407.68a84.08,84.08,0,0,0,4.83-8.41.79.79,0,0,0-1.21-.9,36,36,0,0,0-6.65,8.72c-1.1,1.84-2.59,3.77-3.18,5.87a11,11,0,0,1,2.57,1.31C140.31,412.37,141.2,409.67,142.38,407.68Z"/><path class="cls-18" d="M143.17,420.22a11.11,11.11,0,0,1,.32,1.4c2.27-.87,5-.49,7.44-.45a36,36,0,0,1,10.88,1.39.79.79,0,0,1-.17,1.5,84.19,84.19,0,0,1-9.7,0c-2.46,0-5.46.64-8,.07,0,.14,0,.28,0,.42a38.1,38.1,0,0,0,6.18,1.73c3.84,1,7.58,2.91,11.64,2.74.86,0,1.42,1.26.46,1.58-4,1.34-8-.22-11.9-1.36-2.14-.62-4.52-.92-6.51-1.87,0,.2-.07.41-.12.61,1.84.77,3.54,2.09,5.28,2.94a40.16,40.16,0,0,0,10.63,3.29c.73.13.84,1.3,0,1.37a23,23,0,0,1-10.51-1.89,22.09,22.09,0,0,1-6-3.1c-.11.36-.25.72-.4,1.07a17.86,17.86,0,0,1,4.47,4,23.93,23.93,0,0,0,2.48,1.5c6.3,3.12,17.15,5.85,21.83-1.53,9-14.15-9.36-20.2-21.48-18.09a17.15,17.15,0,0,0-6.12,2.16C143.66,419.87,143.41,420,143.17,420.22Z"/><path class="cls-19" d="M143.14,430.63a22.09,22.09,0,0,0,6,3.1,23,23,0,0,0,10.51,1.89c.82-.07.71-1.24,0-1.37A40.16,40.16,0,0,1,149,431c-1.74-.86-3.44-2.18-5.28-2.94,0,.2-.09.39-.14.59A12.43,12.43,0,0,1,143.14,430.63Z"/><path class="cls-19" d="M143.86,427.41c2,.95,4.37,1.24,6.51,1.87,3.88,1.13,7.91,2.7,11.9,1.36,1-.32.4-1.61-.46-1.58-4.07.17-7.81-1.73-11.64-2.74a38.1,38.1,0,0,1-6.18-1.73A12.26,12.26,0,0,1,143.86,427.41Z"/><path class="cls-19" d="M144,424.16c2.51.56,5.51-.1,8-.07a84.19,84.19,0,0,0,9.7,0,.79.79,0,0,0,.17-1.5,36,36,0,0,0-10.88-1.39c-2.41,0-5.17-.43-7.44.45,0,.1,0,.2.06.3A13.7,13.7,0,0,1,144,424.16Z"/><path class="cls-18" d="M142.75,431.7a11.4,11.4,0,0,1-1,1.79,41.15,41.15,0,0,1,2.71,4.76,36,36,0,0,1,4.23,10.12.79.79,0,0,1-1.38.6,84,84,0,0,1-4.87-8.4c-.82-1.45-2-3-3-4.55a8.22,8.22,0,0,1-.88.63c.34,1.21.75,2.4,1.06,3.51,1,3.83,1.27,8,3.44,11.45.46.73-.38,1.86-1.14,1.19-3.16-2.79-3.82-7.06-4.78-11-.33-1.36-.83-2.75-1.19-4.14a9.24,9.24,0,0,1-.92.15c0,1.24-.1,2.49,0,3.66a40.23,40.23,0,0,0,2.47,10.86c.25.7-.71,1.38-1.17.71a23,23,0,0,1-3.62-10,28.54,28.54,0,0,1-.46-5.25c-.35-.06-.7-.13-1-.21a19.3,19.3,0,0,1-1.14,4.74,23.81,23.81,0,0,0-.06,2.9c.45,7,3.51,17.77,12.24,18.14,16.74.7,12.81-18.2,4.93-27.65A17.86,17.86,0,0,0,142.75,431.7Z"/><path class="cls-19" d="M132.29,437.75a28.54,28.54,0,0,0,.46,5.25,23,23,0,0,0,3.62,10c.47.67,1.42,0,1.17-.71a40.23,40.23,0,0,1-2.47-10.86c-.08-1.17,0-2.42,0-3.66A10.69,10.69,0,0,1,132.29,437.75Z"/><path class="cls-19" d="M137.22,441.81c1,3.93,1.61,8.19,4.78,11,.76.67,1.6-.46,1.14-1.19-2.18-3.44-2.4-7.63-3.44-11.45-.3-1.11-.72-2.3-1.06-3.51a8.33,8.33,0,0,1-2.6,1C136.39,439.06,136.88,440.45,137.22,441.81Z"/><path class="cls-19" d="M139.51,436c.94,1.59,2.15,3.1,3,4.55a84,84,0,0,0,4.87,8.4.79.79,0,0,0,1.38-.6,36,36,0,0,0-4.23-10.12,41.15,41.15,0,0,0-2.71-4.76,11.56,11.56,0,0,1-1.84,2.18C139.82,435.8,139.66,435.9,139.51,436Z"/><path class="cls-18" d="M129.14,436.83a49.54,49.54,0,0,1-2.62,4.39,36,36,0,0,1-6.64,8.72.79.79,0,0,1-1.21-.9,84.17,84.17,0,0,1,4.83-8.42c.95-1.6,1.71-3.67,2.79-5.41-.23-.17-.46-.34-.67-.52-1.12,1.06-2.15,2.29-3.15,3.3-2.79,2.82-6.31,5.11-8.2,8.71-.4.77-1.8.61-1.6-.39.84-4.13,4.21-6.84,7.13-9.63,1.31-1.25,2.51-2.75,3.88-3.94-.14-.18-.27-.36-.39-.54-1.39.88-3,1.58-4.28,2.46a40.06,40.06,0,0,0-8.17,7.56c-.48.57-1.54.08-1.2-.66a23,23,0,0,1,6.89-8.16,25.72,25.72,0,0,1,4.86-3.31c-.23-.28-.44-.56-.64-.85a18.94,18.94,0,0,1-4.92,1.5,24,24,0,0,0-2.55,1.4c-5.85,3.9-13.64,11.93-9.59,19.67,7.76,14.85,22.17,2,26.41-9.55a19.3,19.3,0,0,0,1.14-4.74A13.74,13.74,0,0,1,129.14,436.83Z"/><path class="cls-19" d="M123,431.77a14.15,14.15,0,0,1-1.6-1.66,25.72,25.72,0,0,0-4.86,3.31,23,23,0,0,0-6.89,8.16c-.35.74.72,1.23,1.2.66a40.06,40.06,0,0,1,8.17-7.56c1.31-.88,2.88-1.58,4.28-2.46-.07-.1-.15-.19-.21-.29Z"/><path class="cls-19" d="M123.67,432.75c-1.38,1.19-2.58,2.69-3.88,3.94-2.92,2.79-6.29,5.5-7.12,9.63-.21,1,1.2,1.15,1.6.39,1.89-3.6,5.41-5.89,8.2-8.71,1-1,2-2.24,3.15-3.3A12.86,12.86,0,0,1,123.67,432.75Z"/><path class="cls-19" d="M123.49,440.63a84.17,84.17,0,0,0-4.83,8.42.79.79,0,0,0,1.21.9,36,36,0,0,0,6.64-8.72,49.54,49.54,0,0,0,2.62-4.39,14.79,14.79,0,0,1-2.86-1.61C125.21,437,124.44,439,123.49,440.63Z"/><path class="cls-18" d="M119.67,427.22c-1.58.09-3.22-.07-4.72-.1a36,36,0,0,1-10.88-1.39.79.79,0,0,1,.17-1.5,83.93,83.93,0,0,1,9.71,0c1.61,0,3.44-.26,5.22-.29a7.19,7.19,0,0,1,.18-1.06c-1.24-.32-2.5-.56-3.64-.86-3.83-1-7.58-2.91-11.64-2.74-.86,0-1.42-1.26-.46-1.58,4-1.34,8,.22,11.9,1.36,1.6.47,3.34.75,5,1.26.09-.14.17-.28.27-.42l.15-.19c-1.37-.75-2.69-1.68-4-2.34a40.1,40.1,0,0,0-10.64-3.29c-.73-.13-.84-1.3,0-1.37a23,23,0,0,1,10.51,1.88,21.8,21.8,0,0,1,6.08,3.15q.38-.31.78-.59l.13-.15-.1-.12a17.13,17.13,0,0,1-4.94-4.23,23.91,23.91,0,0,0-2.48-1.5c-6.3-3.12-17.15-5.85-21.83,1.53-9,14.15,9.37,20.2,21.48,18.09a18.94,18.94,0,0,0,4.92-1.5A9.92,9.92,0,0,1,119.67,427.22Z"/><path class="cls-19" d="M122.78,417.72a21.8,21.8,0,0,0-6.08-3.15,23,23,0,0,0-10.51-1.88c-.81.07-.71,1.24,0,1.37a40.1,40.1,0,0,1,10.64,3.29c1.34.66,2.65,1.59,4,2.34A11.18,11.18,0,0,1,122.78,417.72Z"/><path class="cls-19" d="M115.5,419c-3.88-1.13-7.9-2.7-11.9-1.36-1,.32-.4,1.61.46,1.58,4.06-.17,7.81,1.73,11.64,2.74,1.14.3,2.4.54,3.64.86a8.19,8.19,0,0,1,1.11-2.56C118.84,419.78,117.11,419.5,115.5,419Z"/><path class="cls-19" d="M119.17,423.92c-1.78,0-3.61.31-5.22.29a83.93,83.93,0,0,0-9.71,0,.79.79,0,0,0-.17,1.5,36,36,0,0,0,10.88,1.39c1.51,0,3.15.19,4.72.1A7.56,7.56,0,0,1,119.17,423.92Z"/><path class="cls-18" d="M123.6,416.86l.14.08q.33-.39.7-.74a2.86,2.86,0,0,1,.27-.64c-1.43-1.55-2.34-3.7-3.34-5.51a36,36,0,0,1-4.23-10.12.79.79,0,0,1,1.38-.6,83.75,83.75,0,0,1,4.87,8.39c1.12,2,3,4.09,3.87,6.35h.16l.32-.21a47.81,47.81,0,0,0-1.55-5.72c-1-3.82-1.27-8-3.45-11.45-.46-.73.38-1.86,1.14-1.19,3.16,2.79,3.82,7.06,4.78,11a52.93,52.93,0,0,1,1.6,6.23c.19-.06.39-.11.58-.16-.19-1.89.07-3.91-.05-5.75A40.15,40.15,0,0,0,128.33,396c-.25-.7.7-1.38,1.17-.71a23,23,0,0,1,3.62,10,20.9,20.9,0,0,1,.25,7.08,9.91,9.91,0,0,1,1.17.13l0-.09a25.63,25.63,0,0,0,1.19-6.4,23.83,23.83,0,0,0,.06-2.9,31.12,31.12,0,0,0-2.41-10.31q-.26-.58-.55-1.14C131,388,128,385.17,123.59,385c-16.74-.7-12.81,18.2-4.93,27.65A17.13,17.13,0,0,0,123.6,416.86Z"/><path class="cls-19" d="M133.38,412.38a20.9,20.9,0,0,0-.25-7.08,23,23,0,0,0-3.62-10c-.47-.67-1.42,0-1.17.71a40.15,40.15,0,0,1,2.47,10.86c.12,1.84-.14,3.86.05,5.75A9.47,9.47,0,0,1,133.38,412.38Z"/><path class="cls-19" d="M128.66,406.49c-1-3.92-1.62-8.19-4.78-11-.76-.67-1.6.46-1.14,1.19,2.18,3.44,2.4,7.63,3.45,11.45a47.81,47.81,0,0,1,1.55,5.72,9.46,9.46,0,0,1,2.53-1.14A52.93,52.93,0,0,0,128.66,406.49Z"/><path class="cls-19" d="M127.26,414.09c-.87-2.26-2.74-4.36-3.87-6.35a83.75,83.75,0,0,0-4.87-8.39.79.79,0,0,0-1.38.6,36,36,0,0,0,4.23,10.12c1,1.81,1.91,4,3.34,5.51a2.79,2.79,0,0,1,.19-.32A2.93,2.93,0,0,1,127.26,414.09Z"/><path class="cls-20" d="M133.38,412.38a9.47,9.47,0,0,0-2.53.19c-.2,0-.39.1-.58.16a9.46,9.46,0,0,0-2.53,1.14l-.32.21a2.87,2.87,0,0,1,1.57.56,2.91,2.91,0,0,1,1.15,2.54,6.78,6.78,0,0,1,2.78,0,2.82,2.82,0,0,1,.36-.64A2.93,2.93,0,0,1,138,420a6.43,6.43,0,0,1,1.39,2.88h.11a2.11,2.11,0,0,1,3.32-1.37c2.15,1.6-.22,4.88-2.38,3.5a3.77,3.77,0,0,1-1.06.47c0,.42.06.84.06,1.27a5.16,5.16,0,0,1-.52,2.32c0,.08-.07.15-.11.23a2.92,2.92,0,0,1-3.56,4.63,2.89,2.89,0,0,1-1.1-1.77,5.18,5.18,0,0,1-2.15-.35,7.5,7.5,0,0,1-.87-.11,3,3,0,0,1-.45,2.53,3,3,0,0,1-4.81-3.57,2.89,2.89,0,0,1,1.33-1l-.26-.26c-.13-.14-.23-.29-.34-.43a7.65,7.65,0,0,1-1-1,2.94,2.94,0,1,1-1.3-4.83,6.55,6.55,0,0,1,.44-1.45,8.31,8.31,0,0,1,1.3-2,2.74,2.74,0,0,1-.58-.32,3,3,0,0,1-1.06-3.14q-.37.36-.7.74l0,0-.13.15q-.4.28-.78.59a11.18,11.18,0,0,0-1.91,2l-.15.19c-.1.14-.18.28-.27.42a8.19,8.19,0,0,0-1.11,2.56,7.19,7.19,0,0,0-.18,1.06,7.56,7.56,0,0,0,.51,3.31,9.92,9.92,0,0,0,1.07,2c.2.29.41.57.64.85a14.15,14.15,0,0,0,1.6,1.66l.09.15c.06.1.14.19.21.29s.25.36.39.54a12.86,12.86,0,0,0,1.94,1.95c.22.18.44.36.67.52a14.79,14.79,0,0,0,2.86,1.61,13.74,13.74,0,0,0,2.11.71c.35.09.7.16,1,.21a10.69,10.69,0,0,0,2.81.07,9.24,9.24,0,0,0,.92-.15,8.33,8.33,0,0,0,2.6-1,8.22,8.22,0,0,0,.88-.63c.15-.12.3-.22.45-.35a11.56,11.56,0,0,0,1.84-2.18,11.4,11.4,0,0,0,1-1.79c.15-.35.28-.71.4-1.07a12.43,12.43,0,0,0,.46-2c.05-.19.1-.39.14-.59s.08-.4.12-.61a12.26,12.26,0,0,0,.14-2.83c0-.14,0-.28,0-.42a13.7,13.7,0,0,0-.41-2.24c0-.1,0-.2-.06-.3a11.11,11.11,0,0,0-.32-1.4c0-.13-.09-.27-.13-.4-.11-.33-.24-.65-.38-1a10.49,10.49,0,0,0-1.16-2c-.05-.07-.1-.15-.15-.22l-.23-.26a11.9,11.9,0,0,0-1.93-1.85l-.42-.29a11,11,0,0,0-2.57-1.31,10.36,10.36,0,0,0-1.6-.43h0A9.91,9.91,0,0,0,133.38,412.38Z"/><path class="cls-21" d="M134.34,430.31l-1.3-2.16a11.77,11.77,0,0,1-2,3.14,3.08,3.08,0,0,1,.1.37,7.5,7.5,0,0,0,.87.11,5.18,5.18,0,0,0,2.15.35A3,3,0,0,1,134.34,430.31Z"/><path class="cls-21" d="M135.9,426.12a27.45,27.45,0,0,1,1.18,2.52,2.88,2.88,0,0,1,1.64.56l.07.06c0-.08.08-.15.11-.23a5.16,5.16,0,0,0,.52-2.32c0-.42,0-.85-.06-1.27a10.51,10.51,0,0,1-1.6.34C137.16,425.89,136.53,426,135.9,426.12Z"/><path class="cls-21" d="M132.2,420.84a14,14,0,0,1,.7-1.54,3,3,0,0,1,0-2.15,6.78,6.78,0,0,0-2.78,0,2.89,2.89,0,0,1-.45,1.39A10.62,10.62,0,0,1,132.2,420.84Z"/><path class="cls-21" d="M129.3,427.23a14.2,14.2,0,0,1-3.09-.11,2.21,2.21,0,0,1-.57.86,7.65,7.65,0,0,0,1,1c.11.14.21.29.34.43l.26.26a3.11,3.11,0,0,1,1.06-.21A14.94,14.94,0,0,1,129.3,427.23Z"/><path class="cls-21" d="M135.39,421.16a9.94,9.94,0,0,1-.45,2.08l.38-.07a21,21,0,0,1,2.47-.22c.53-.05,1,0,1.57-.08A6.43,6.43,0,0,0,138,420h0A2.94,2.94,0,0,1,135.39,421.16Z"/><path class="cls-21" d="M125.27,423.6a2.89,2.89,0,0,1,.75.83,24.57,24.57,0,0,1,4.08-.63,16,16,0,0,1-2.86-3.91,3,3,0,0,1-1.16-.24,8.31,8.31,0,0,0-1.3,2,6.55,6.55,0,0,0-.44,1.45A2.87,2.87,0,0,1,125.27,423.6Z"/><path class="cls-22" d="M125.5,419.34a2.74,2.74,0,0,0,.58.32,3,3,0,0,0,1.16.24,16,16,0,0,0,2.86,3.91,24.57,24.57,0,0,0-4.08.63,2.77,2.77,0,0,0-1.68-1.28,2.94,2.94,0,1,0,1.3,4.83,2.21,2.21,0,0,0,.57-.86,14.2,14.2,0,0,0,3.09.11,14.94,14.94,0,0,0-1,2.22,3.11,3.11,0,0,0-1.06.21,2.89,2.89,0,0,0-1.33,1,3,3,0,0,0,4.81,3.57,3,3,0,0,0,.45-2.53,3.08,3.08,0,0,0-.1-.37,11.77,11.77,0,0,0,2-3.14l1.3,2.16a3,3,0,0,0-.2,1.83,2.89,2.89,0,0,0,1.1,1.77,2.92,2.92,0,0,0,3.56-4.63l-.07-.06a2.88,2.88,0,0,0-1.64-.56,27.45,27.45,0,0,0-1.18-2.52c.63-.12,1.25-.23,1.86-.32a10.51,10.51,0,0,0,1.6-.34,3.77,3.77,0,0,0,1.06-.47c2.16,1.38,4.53-1.91,2.38-3.5a2.11,2.11,0,0,0-3.32,1.37h-.11c-.53,0-1,0-1.57.08a21,21,0,0,0-2.47.22l-.38.07a9.94,9.94,0,0,0,.45-2.08A2.94,2.94,0,0,0,138,420h0a2.93,2.93,0,0,0-4.71-3.48,2.82,2.82,0,0,0-.36.64,3,3,0,0,0,0,2.15,14,14,0,0,0-.7,1.54,10.62,10.62,0,0,0-2.52-2.26,2.9,2.9,0,0,0-2.27-4.5h-.16a2.93,2.93,0,0,0-2.36,1.16,2.79,2.79,0,0,0-.19.32,2.86,2.86,0,0,0-.27.64A3,3,0,0,0,125.5,419.34Z"/><path class="cls-23" d="M299.87,499.79l-.14.21h.12C299.9,499.79,299.91,499.71,299.87,499.79Z"/><path class="cls-23" d="M263.09,493.41c-2.16-2.88-4.26-6.56-4.24-6.28a77.47,77.47,0,0,0,2,12.87h7.35C266.55,497.82,264.74,495.6,263.09,493.41Z"/><path class="cls-23" d="M282.92,500c4.21-1.49,7.64-5.16,10.58-8.34a40.61,40.61,0,0,0,5.93-8.43c1.89-3.51,5.08-10.5,5.08-10.5a28.49,28.49,0,0,0-5.84,5.11c-2.12,2.7-12.46,9-16.48,17.82.76-5.66,1.61-13.75,1.58-14.34,3.95-1.5,7-6.42,9-9.87,3.51-5.9,7.48-19.5,7.48-19.5s-7.12,8.52-10.28,12.63A47,47,0,0,0,283.26,477c0-2.89-.12-5.78-.3-8.69,0-.49-.08-1-.12-1.48,3.44-1.77,5.23-6.57,6.68-9.9,2-4.71,4.3-18.3,2.23-22.87-1.44,3.33-3.7,12.41-5.12,15.6-1.63,3.65-3.78,7.14-4.37,11.08-.07-.57-.12-1.14-.2-1.71.36-7.14-.15-14.56-.51-21.69-.19-3.73-1.69-7.73-2.54-11.33-.89-3.75-1.05-10.51-1.87-9.63s-2.09,10.2-1.86,15.73c.21,4.88.74,10.22,2.93,14.68.16.7.32,1.39.49,2.1.3,1.26.55,2.53.76,3.8a25.38,25.38,0,0,0,.64,4.68c0,.22,0,.43.07.65-1.07-2.22-2.45-4.35-3.61-6.44-3.11-5.58-9.84-18.29-10-17.88-2.43,8.12,3.21,26.8,13.43,28,.18.24.37.46.56.68l.05.56q.48,5.47.54,10.95c-4.53-7.26-13.74-13.65-17.86-19.16-.23-.31-.8,0-.61.33l0,.08a.31.31,0,0,0-.15.32,33.22,33.22,0,0,0,6.85,15.12c2.9,3.81,7.05,8.74,11.62,10.71q-.25,6.09-1.05,12.13c-1.31-4.88-4.33-8.92-8.37-12.77-1.64-1.56-4.36-2.7-6.13-4.33s-5.13-6.49-5.24-6.29a.94.94,0,0,0-.05.16s-.13.11-.15.19c-.89,4.79,3.92,11.48,6.64,15.12A47.74,47.74,0,0,0,273,492a56.43,56.43,0,0,1,6.09,7.07c-.05.32-.12.65-.18,1Z"/><path class="cls-24" d="M234.93,493.45c1.94-.53,3.82-2.39,5.11-3.56,1.67-1.51,4.57-4.4,3.52-6.93-1.17-2.83-4.83-1.7-6.73-.37a11,11,0,0,0-3,3.22c-.34-3-.56-5.92-.68-8.89,4.41-.82,11.38-7.45,7.4-10.34-3.41-2.47-6,0-7.5,3.43,0-2.08.06-4.16.16-6.25,5.64.75,15.91-6.17,10.52-10.3-2.6-2-7,1.34-8.88,2.91-.4.33-.83.7-1.25,1.1,0-.2,0-.4,0-.61A43.46,43.46,0,0,0,238.74,442c.41-2.66-1.3-7.61-4.87-5.52s-3.81,6.77-3.85,10.25c0,2.54,0,6.31,2,8.2-.3,1.29-.55,2.59-.79,3.9-1.66-3.25-4.62-7.68-8.48-7.35a1.18,1.18,0,0,0-1.14,1.14,10.22,10.22,0,0,0,3.47,9.2,8.4,8.4,0,0,0,5.46,1.84c-.25,2.2-.41,4.43-.5,6.66a18.8,18.8,0,0,0-4.64-4c-2.05-1.22-5.38-.95-5.76,1.93-.35,2.71,3,4.61,4.95,5.68A16.76,16.76,0,0,0,230,476c.07,3.21.31,6.42.67,9.61a12.68,12.68,0,0,0-4.37-5,3.19,3.19,0,0,0-5.08,2.14c-.28,2.75,2.57,5.09,4.51,6.53,1.6,1.18,3.78,2.48,5.81,2.39.48,2.79,1.07,5.54,1.75,8.25h3.11Q235.55,496.73,234.93,493.45Z"/><path class="cls-24" d="M223.16,500h6.53C227.12,498.29,224.53,497.62,223.16,500Z"/><path class="cls-24" d="M244.89,498.15c-2-1.18-4.3.33-5.73,1.85h7.6A4.45,4.45,0,0,0,244.89,498.15Z"/><path class="cls-23" d="M264.64,49.62c5.79-4.54,7.13-14.15,9.54-20.61.54-1.45,1.11-3.18,1.68-5.07,4.81.22,10.1-3.3,13.64-5.94,5.3-4,9.82-16.15,10.34-18h-.12C296.54,5.08,289.66,6.49,285,9.93a54.92,54.92,0,0,0-6.82,5.67c2-7.74,3.65-15.12,3.63-15.26.37-.09.73-.21,1.09-.34h-4c-.88,5.06-2,10.09-3.3,15-.54-3.4-2.53-6.9-4-9.66A39.83,39.83,0,0,0,268.19,0h-7.35a24.58,24.58,0,0,0,2.42,6.29c3.15,5.24,6.24,10.55,10.28,15.06a.43.43,0,0,0,.26.13c-.07.21-4.27,12.69-5.77,16.72-1.18,3.18-3,6.11-4.32,9.2A3.28,3.28,0,0,1,264.64,49.62Z"/><path class="cls-24" d="M227.86,7c1.9.83,5.43,2.32,8,2,.07.2.12.4.19.59,1.09,3.17,2.35,6.29,3.7,9.38a11.65,11.65,0,0,0-6.71-3.31c-2.3-.21-4.93,2.18-3.79,4.48s5.22,2.94,7.35,3.47a28.07,28.07,0,0,0,5.59.76c1,2.18,2.07,4.35,3.11,6.51a9.13,9.13,0,0,0-6-1.18c-2.21.41-3.83,2.9-2.29,4.76s5.38,2.09,7.57,2.37c.81.1,2.3.39,3.74.44l.36.76q1.31,2.78,2.56,5.59A12.07,12.07,0,0,0,245,40.91c-2.07-.15-4.75,2.18-3.73,4.32.95,2,4.85,1.93,6.63,2a17.68,17.68,0,0,0,5.05,0c1,2.32,2,4.65,2.89,7,.2.5.38,1,.56,1.51a12,12,0,0,0-6.46-3.7c-1.94-.38-6,.77-5.33,3.48.54,2.16,4.42,2.67,6.14,3s4.37.93,6.19.19l.07.07a.43.43,0,0,0,.45.33l.08,0a71.68,71.68,0,0,0,4,10.54.73.73,0,0,0,1.35-.37,37,37,0,0,0-1.9-10.36c1.45-1.19,2.46-3.68,2.92-4.93a11.37,11.37,0,0,0,.82-4.38,3.28,3.28,0,0,0-.94-2.21,2.81,2.81,0,0,0-.63-.46c-2.46-1.3-4.45,2.44-5.07,4.2v0c-.55-1.3-1.11-2.58-1.67-3.83a.63.63,0,0,0,.31-.2,27.79,27.79,0,0,0,5.92-12.23,1.18,1.18,0,0,0-1.13-1.48c-2.89.2-6.64,3.56-8.12,7q-.87-1.94-1.76-3.87l.09-.1a.6.6,0,0,0,.24-1l-.1-.13a20.61,20.61,0,0,0,2.79-4.21,14.23,14.23,0,0,0,2-6.54,1.18,1.18,0,0,0-1.17-1.17c-3.8-.25-6.39,3.51-6.66,7.22q-1.52-3.21-3-6.42c1.5-1,2.5-3.64,3-4.86,1-2.37,2.4-6.21,1.06-8.71a1.2,1.2,0,0,0-1.36-.55c-2.7,1-5,4-5.87,7.16-.78-1.77-1.54-3.54-2.27-5.33-.24-.6-.47-1.19-.7-1.79a14.43,14.43,0,0,0,1.5-.91c2.57-1.77,7.23-6,5.67-9.26h-7.6l-.42.47a6.79,6.79,0,0,0-1.46,2.85c-.32-1.1-.62-2.21-.91-3.32h-3.11c.34,1.37.7,2.74,1.09,4.09A27.41,27.41,0,0,0,229.69,0h-6.53a5.07,5.07,0,0,0-.33.68C221.61,3.78,225.66,6,227.86,7Z"/><path class="cls-16" d="M344.59,451.11h0a4.51,4.51,0,0,1-.1,2c1.91.51,3.89.86,5.76,1.19a13.81,13.81,0,0,0,7.1-.13c2.66,2.93,5.43,5.7,9.35,6.87.6.18.88-.68.47-1-2.71-2.33-5.25-4.77-7.68-7.29,2.42-1.07,3.22-5.87,3.34-7.94a20.71,20.71,0,0,0-.17-4.4,6.38,6.38,0,0,1-1.95.23,18.35,18.35,0,0,1-.13,4.44,12.71,12.71,0,0,1-1.66,5c-.28.43-.52.83-.74,1.25a136.58,136.58,0,0,1-13.72-17.44c2.25-1.26,3.2-6.12,3.38-8a37.72,37.72,0,0,0-.16-8.1,5.54,5.54,0,0,1-1.66.31,44.64,44.64,0,0,1-.13,6.7,14.5,14.5,0,0,1-1.71,5.91c-.29.47-.64.9-.94,1.35a205.52,205.52,0,0,1-10.46-18.26,3.57,3.57,0,0,0,.29-.7.44.44,0,0,0-.32-.53c1.4-2.21,1.53-5.52,1.59-8a57.26,57.26,0,0,0-.63-9,4.15,4.15,0,0,1-1.51.22,64,64,0,0,1,0,8.66c-.17,1.87-.82,3.85-1.16,5.78-3.35-6.78-6.44-13.71-9.44-20.67a4.16,4.16,0,0,1-1.44.95A191.65,191.65,0,0,0,329,412.82a5.66,5.66,0,0,1-2.28-.37,23,23,0,0,1-5.61-3.16c-1.48-1.12-2.87-2.35-4.23-3.6l-.09.13a3.51,3.51,0,0,1-1.41,1A31.12,31.12,0,0,0,322.9,413c1.54.9,4.82,2.47,7.29,2.29A155.35,155.35,0,0,0,339.78,432l1.27,1.9a23.65,23.65,0,0,1-8.61-1.93,29.88,29.88,0,0,1-4.91-3.33,2.8,2.8,0,0,1-1.38.93,3.86,3.86,0,0,1-.9.85,21.49,21.49,0,0,0,6.25,3.61c3.34,1.29,7.15,2.35,10.71,1.57a121.15,121.15,0,0,0,12.24,15.42q.73.76,1.44,1.55a42.73,42.73,0,0,1-7.28-.9A24.38,24.38,0,0,0,344.59,451.11Z"/><path class="cls-17" d="M362.65,440.42a4.52,4.52,0,0,0,3.17-2.89,5.87,5.87,0,0,0-1.95-6.33,5,5,0,0,0-6.71.3,3.94,3.94,0,0,0-1.07,2.38,4.67,4.67,0,0,0-.31,1.45,4.6,4.6,0,0,0,1.41,3.85,5.51,5.51,0,0,0,2.91,1.43c.2,0,.4,0,.6,0A6.38,6.38,0,0,0,362.65,440.42Z"/><path class="cls-17" d="M344.59,451.12h0a5.27,5.27,0,0,0-2.66-4.13,4.08,4.08,0,0,0-5.4,1.17,5.28,5.28,0,0,0-.22,5.81,5.08,5.08,0,0,0,5.85,1.91,4.16,4.16,0,0,0,2.34-2.72A4.51,4.51,0,0,0,344.59,451.12Z"/><path class="cls-17" d="M350.63,415.37a3.25,3.25,0,0,0,.27-.58c.05-.08.11-.16.16-.25,1-1.8-.13-4.23-1.68-5.32a4.9,4.9,0,0,0-3.36-1,4.67,4.67,0,0,0-3.5,2.46,6.49,6.49,0,0,0-.93,3.91,4,4,0,0,0,2.43,3.31,5.92,5.92,0,0,0,2,.27,5.54,5.54,0,0,0,1.66-.31A5.64,5.64,0,0,0,350.63,415.37Z"/><path class="cls-17" d="M326.15,429.6a2.8,2.8,0,0,0,1.38-.93,2.06,2.06,0,0,0,.4-1c.36-2.85-.8-5.86-3.88-6.49a5.48,5.48,0,0,0-5.84,2.72,4.14,4.14,0,0,0-.09,3.59,7,7,0,0,0,3.25,3.33,4,4,0,0,0,3.88-.36A3.86,3.86,0,0,0,326.15,429.6Z"/><path class="cls-17" d="M333.71,395.67a4.09,4.09,0,0,0,.58-.25,4,4,0,0,0,3.18-2.67,4.92,4.92,0,0,0-2.79-6,4.53,4.53,0,0,0-6,2.68c-.82,2.45-.22,5.78,2.72,6.4a4.62,4.62,0,0,0,.77.1A4.15,4.15,0,0,0,333.71,395.67Z"/><path class="cls-17" d="M316.87,405.7a4.93,4.93,0,0,0,.65-4.56,4.65,4.65,0,0,0-5.11-3,6.23,6.23,0,0,0-1.39.42,4.65,4.65,0,0,0-2.4,2.17,3.87,3.87,0,0,0-.4,1.83,4.39,4.39,0,0,0,2.93,3.84,4.87,4.87,0,0,0,4.21.48,3.51,3.51,0,0,0,1.41-1Z"/><path class="cls-17" d="M322,389.13a6.4,6.4,0,0,0,.89-1.8,4.35,4.35,0,0,0,.43-1.09,5.31,5.31,0,0,0-1.78-5.2,4.24,4.24,0,0,0-2.58-1.4,4.89,4.89,0,0,0-5.6,2.07c-1.62,2.48-.63,5.67,1.33,7.66a5.16,5.16,0,0,0,5.4,1.25,4.16,4.16,0,0,0,1.44-.95A4.34,4.34,0,0,0,322,389.13Z"/><path class="cls-13" d="M495.77,472.54c1.4,0,2.8,0,4.19,0h0v-2.16a33.82,33.82,0,0,1-3.77,1.71A6.08,6.08,0,0,1,495.77,472.54Z"/><path class="cls-13" d="M497.87,468.61q1.09-.43,2.13-.91v-2.19l-.5.64C498.94,466.88,498.41,467.73,497.87,468.61Z"/><path class="cls-13" d="M482.52,459.47c.18-.5,1.08-.65,1.22,0a34.54,34.54,0,0,0,1.31,4.7,1.46,1.46,0,0,1,1.54.41l.43.51c.07-.5.14-1,.21-1.49.56-4,.44-9.14,2.74-12.6.23-.34.87-.24.86.22-.09,3.49-.55,7-1,10.46-.09.73-.13,1.46-.17,2.19a1.72,1.72,0,0,1,2.26.41c1.8-4.56,4-9.05,5.47-13.48a.79.79,0,0,1,1.52.39c-1.21,5.37-3.23,10.5-4.87,15.75-.15.48-.27,1-.39,1.51.29-.27.59-.53.89-.77a1.86,1.86,0,0,1,1.16-.4c1.43-1.62,2.87-3.26,4.24-4.93v-23.5a7.6,7.6,0,0,0-.6-.64,1.5,1.5,0,0,0-2.28.27c-2,3-2.65,6.5-3.13,10.07a16.22,16.22,0,0,0-3.43-7.73,1.42,1.42,0,0,0-2.16.25c-2.66,3.73-2.47,8.54-2.05,13a23.16,23.16,0,0,0-7.21-5.7,1.39,1.39,0,0,0-1.85.46c-2.54,5.62.48,13.14,3.63,18.16a5.64,5.64,0,0,0,.39.53l2.3.71C482.19,465.29,481.6,462,482.52,459.47Z"/><path class="cls-13" d="M500,477.12V476c-.32.09-.64.19-1,.26C499.38,476.55,499.7,476.83,500,477.12Z"/><path class="cls-14" d="M482.52,459.47c-.93,2.54-.33,5.82,1.09,8.71l.42.13a5.86,5.86,0,0,1-.15-3,1.61,1.61,0,0,1,1.18-1.1,34.54,34.54,0,0,1-1.31-4.7C483.61,458.82,482.71,459,482.52,459.47Z"/><path class="cls-14" d="M497.5,468.82a4.4,4.4,0,0,1-1.28,3.27,33.82,33.82,0,0,0,3.77-1.71V467.7q-1,.48-2.13.91c.54-.88,1.07-1.73,1.63-2.46l.5-.64v-3.16c-1.37,1.67-2.8,3.31-4.24,4.93A1.63,1.63,0,0,1,497.5,468.82Z"/><path class="cls-14" d="M499,451.2a.79.79,0,0,0-1.52-.39c-1.46,4.43-3.68,8.92-5.47,13.48l.05.07a8.55,8.55,0,0,1,.89,4.84l.79-.74c.12-.52.24-1,.39-1.51C495.75,461.7,497.77,456.57,499,451.2Z"/><path class="cls-14" d="M490.83,451.22c0-.46-.64-.56-.86-.22-2.3,3.46-2.18,8.58-2.74,12.6-.07.49-.14,1-.21,1.49.55.66,1.1,1.32,1.61,2a9.53,9.53,0,0,1,.68-2.77,1.08,1.08,0,0,1,.4-.46c0-.73.08-1.46.17-2.19C490.29,458.23,490.74,454.71,490.83,451.22Z"/><path class="cls-15" d="M500,477.12c-.3-.28-.62-.57-1-.84.32-.07.64-.17,1-.26v-3.47h0c-1.39,0-2.79,0-4.19,0a6.08,6.08,0,0,0,.46-.45,4.4,4.4,0,0,0,1.28-3.27,1.63,1.63,0,0,0-1.74-1.54,1.86,1.86,0,0,0-1.16.4c-.3.25-.6.51-.89.77l-.79.74a8.55,8.55,0,0,0-.89-4.84l-.05-.07a1.72,1.72,0,0,0-2.26-.41,1.08,1.08,0,0,0-.4.46,9.53,9.53,0,0,0-.68,2.77c-.51-.69-1.05-1.35-1.61-2l-.43-.51a1.46,1.46,0,0,0-1.54-.41,1.61,1.61,0,0,0-1.18,1.1,5.86,5.86,0,0,0,.15,3l-.42-.13-2.3-.71-.34-.1c-1.2-.38-2.44,1.08-1.65,2.11a17.2,17.2,0,0,0,5.93,4.29,21.31,21.31,0,0,0,2.92,1.27c-.86,2.26-3.09,4.49-4.45,5.89-2.05,2.11-4.22,4.13-6.07,6.4a.79.79,0,0,0,.81,1.29c3.14-.61,11.06-7.07,12.71-12.13,2.78,1.9,5.46,4.86,8.83,4.66Z"/><path class="cls-13" d="M1.27,478.44a31.9,31.9,0,0,0,9.11.38c4.73-.49,12.18-1.87,13.51-7.1a1.72,1.72,0,0,0-.51-1.71c-2.85-2.21-6.85-2.71-10.93-2.36l.44-.3c2.84-2.11,10.25-8.25,8.42-12.66-1.91-4.6-7-2.7-9.65,0L10,456.44a39.48,39.48,0,0,0,2-5.84c.66-2.59,3-9.6-.89-11.11-5-1.92-7.38,6.23-8.19,9.24a34.52,34.52,0,0,1-1.7,4.67c1.07-4.79,1.94-10.87-1.18-14.56v23.5a47.56,47.56,0,0,0,6.87-10.56c.23-.52,1.2-.27,1.15.3-.5,5.34-4.78,9.34-8,13.42v2.19c.32-.15.64-.29.95-.45,4.41-2.3,8.51-5.11,12.8-7.6.65-.38,1.46.56.85,1a102.36,102.36,0,0,1-11.26,7.82c-1,.62-2.16,1.26-3.34,1.87v2.16a1.92,1.92,0,0,1,.83.21,89.45,89.45,0,0,0,14.73-1.19c.75-.14,1.24.81.55,1.21-3.57,2.06-9.16,2-13.27,2.42l-1.52.15a1.8,1.8,0,0,1-.81.52L0,476v1.1A16.25,16.25,0,0,1,1.27,478.44Z"/><path class="cls-14" d="M14.6,460.7c.6-.48-.2-1.42-.85-1-4.29,2.49-8.39,5.3-12.8,7.6-.31.16-.63.3-.95.45v2.69c1.18-.61,2.3-1.26,3.34-1.87A102.36,102.36,0,0,0,14.6,460.7Z"/><path class="cls-14" d="M1.32,475.35l1.52-.15c4.12-.39,9.71-.37,13.27-2.42.69-.4.2-1.35-.55-1.21A89.45,89.45,0,0,1,.83,472.76,1.69,1.69,0,0,1,1.32,475.35Z"/><path class="cls-14" d="M6.87,451.79A47.56,47.56,0,0,1,0,462.35v3.16c3.24-4.09,7.52-8.08,8-13.42C8.07,451.52,7.1,451.27,6.87,451.79Z"/><path class="cls-15" d="M.62,481.09a1.52,1.52,0,0,0,.93-2.29l-.29-.35A16.25,16.25,0,0,0,0,477.12v4A5.57,5.57,0,0,0,.62,481.09Z"/><path class="cls-15" d="M1.32,475.35a1.69,1.69,0,0,0-.49-2.59,1.92,1.92,0,0,0-.83-.21V476l.51-.14A1.8,1.8,0,0,0,1.32,475.35Z"/><path class="cls-25" d="M285.95,127.86a6.75,6.75,0,0,1,.45.81c1.88-.48,3.77-1.12,5.63-.38a1.46,1.46,0,0,1-.33,2.79,16.53,16.53,0,0,0-2.61.63A31.28,31.28,0,0,1,301,135a16.55,16.55,0,0,0,6.27-2.22c9.83-6.15,10.53-14.58,6.15-18.92-2.6-2.58-10.65-3-18.55,1.38C292.91,120.34,289,124.89,285.95,127.86Z"/><path class="cls-25" d="M282.15,139.83c-.25-.28-.52-.55-.79-.83a6.63,6.63,0,0,1-1.61.24,15.62,15.62,0,0,1,.77,5.3,1.37,1.37,0,0,1-2.61.38,11.35,11.35,0,0,1-.62-2.48c-.17-.86-.55-1.76-.63-2.62l0-.16a29.89,29.89,0,0,1-10.52,8.06,15.52,15.52,0,0,0-.63,4.79c.41,11.58,7.36,16.41,13.31,14.78,3.78-1,8.54-8.71,8-18.71a37.41,37.41,0,0,1-3.38-7.31C283,140.82,282.59,140.33,282.15,139.83Z"/><path class="cls-25" d="M270.21,126.94a2,2,0,0,1-.71-1.85,1.73,1.73,0,0,1,1.94-1.41,5.45,5.45,0,0,1,1.91,1c.49.3,1,.48,1.54.8l.25.16a6.14,6.14,0,0,1,2.42-1.27,30.9,30.9,0,0,1-3-13.22,16.82,16.82,0,0,0-5.31-4.65c-10.24-5.43-17.89-1.83-19.46,4.14-1,3.79,3.27,11.76,12.18,16.33A30,30,0,0,1,270.21,126.94Z"/><path class="cls-26" d="M293.7,155.48c10.24,5.44,17.89,1.83,19.46-4.14,1-3.79-3.27-11.76-12.18-16.32a31.28,31.28,0,0,0-11.89-3.3c-.72.22-1.43.45-2.16.62a7.84,7.84,0,0,1-.32,1.4l.55.28a4.1,4.1,0,0,0,2.51.51,1.47,1.47,0,0,1,1.12,2.57,4.38,4.38,0,0,1-4.27.47,6.54,6.54,0,0,1-1.63-.86,9.44,9.44,0,0,1-.81.81,13.66,13.66,0,0,1,2.44,3.66,1.15,1.15,0,0,1-1.72,1.38,14.35,14.35,0,0,1-1.33-1.27,37.41,37.41,0,0,0,3.38,7.31A18.59,18.59,0,0,0,293.7,155.48Z"/><path class="cls-26" d="M276.63,139.68a10.75,10.75,0,0,1-.1-1.18c-.16-.08-.33-.15-.49-.24a19.34,19.34,0,0,1-1.77,3.1c-.93,1.44-3.52.48-3.16-1.24a6.63,6.63,0,0,1,1.49-2.85,10.37,10.37,0,0,1,1-1.18h0a6.75,6.75,0,0,1-1.1-2.87c-1.54,1.28-3.48,2.41-5.5,1.52a1.77,1.77,0,0,1,1.27-3.3,3.55,3.55,0,0,0,.53-.1,7.52,7.52,0,0,0,.93-.27,9.92,9.92,0,0,1,2.45-.56,1.46,1.46,0,0,1,.4,0,8.42,8.42,0,0,1,.64-2,4.55,4.55,0,0,1-1-.31,7.58,7.58,0,0,1-2.06-1.28,30,30,0,0,0-8.21,0,16.56,16.56,0,0,0-6.27,2.22c-9.83,6.15-10.54,14.58-6.15,18.92,2.38,2.36,9.31,2.91,16.52-.36A29.89,29.89,0,0,0,276.63,139.68Z"/><path class="cls-26" d="M277.88,124.28a7,7,0,0,1,.6-2.47c.35-.89.77-2.22,1.71-2.69l0,0a1.19,1.19,0,0,1,1.66.18c0,.06.07.13.11.19.8.84.39,2.33,0,3.28-.19.48-.38,1-.55,1.45,0,.1-.08.19-.13.29a6.09,6.09,0,0,1,1.16.41c.48-.37,1-.72,1.49-1.12,1-.76,1.8-2,3.19-1.84a1.18,1.18,0,0,1,.94.7c.73,1.71-.9,3.42-2.74,4.47a7.36,7.36,0,0,1,.59.8c3-3,7-7.52,8.88-12.61a16.48,16.48,0,0,0,1.15-6.4c-.41-11.58-7.36-16.41-13.31-14.78-3.57,1-8,7.88-8.09,17.07a30.9,30.9,0,0,0,3,13.22Z"/><path class="cls-27" d="M292,128.29c-1.85-.74-3.75-.1-5.63.38a6.75,6.75,0,0,0-.45-.81,7.36,7.36,0,0,0-.59-.8c1.84-1,3.48-2.76,2.74-4.47a1.18,1.18,0,0,0-.94-.7c-1.39-.17-2.21,1.08-3.19,1.84-.51.39-1,.75-1.49,1.12a6.09,6.09,0,0,0-1.16-.41c0-.09.09-.19.13-.29.18-.49.37-1,.55-1.45.37-1,.78-2.44,0-3.28,0-.06-.06-.13-.11-.19a1.19,1.19,0,0,0-1.66-.18l0,0c-.93.47-1.36,1.8-1.71,2.69a7,7,0,0,0-.6,2.47l-.33.09a6.14,6.14,0,0,0-2.42,1.27l-.25-.16c-.49-.31-1-.5-1.54-.8a5.45,5.45,0,0,0-1.91-1,1.73,1.73,0,0,0-1.94,1.41,2,2,0,0,0,.71,1.85,7.58,7.58,0,0,0,2.06,1.28,4.55,4.55,0,0,0,1,.31,8.42,8.42,0,0,0-.64,2,1.46,1.46,0,0,0-.4,0,9.92,9.92,0,0,0-2.45.56,7.52,7.52,0,0,1-.93.27,3.55,3.55,0,0,1-.53.1,1.77,1.77,0,0,0-1.27,3.3c2,.89,4-.23,5.5-1.52a6.75,6.75,0,0,0,1.1,2.87h0a10.37,10.37,0,0,0-1,1.18,6.63,6.63,0,0,0-1.49,2.85c-.37,1.72,2.23,2.69,3.16,1.24a19.34,19.34,0,0,0,1.77-3.1c.16.09.33.16.49.24a10.75,10.75,0,0,0,.1,1.18l0,.16c.09.86.47,1.76.63,2.62a11.35,11.35,0,0,0,.62,2.48,1.37,1.37,0,0,0,2.61-.38,15.62,15.62,0,0,0-.77-5.3,6.63,6.63,0,0,0,1.61-.24c.27.28.54.55.79.83.45.5.87,1,1.31,1.46a14.35,14.35,0,0,0,1.33,1.27,1.15,1.15,0,0,0,1.72-1.38,13.66,13.66,0,0,0-2.44-3.66,9.44,9.44,0,0,0,.81-.81,6.54,6.54,0,0,0,1.63.86,4.38,4.38,0,0,0,4.27-.47,1.47,1.47,0,0,0-1.12-2.57,4.1,4.1,0,0,1-2.51-.51l-.55-.28a7.84,7.84,0,0,0,.32-1.4c.73-.17,1.44-.4,2.16-.62a16.53,16.53,0,0,1,2.61-.63A1.46,1.46,0,0,0,292,128.29Zm-10.16,8.37c-4.05,1.5-8.71-3.36-5.75-7.11a4.84,4.84,0,0,1,5.43-1.48,4.43,4.43,0,0,1,3.11,3.5,3.51,3.51,0,0,1-.1,1A4.14,4.14,0,0,1,281.87,136.66Z"/><path class="cls-28" d="M284.65,131.58a4.43,4.43,0,0,0-3.11-3.5,4.84,4.84,0,0,0-5.43,1.48c-3,3.75,1.7,8.61,5.75,7.11a4.14,4.14,0,0,0,2.69-4.08A3.51,3.51,0,0,0,284.65,131.58Z"/><path class="cls-18" d="M.43,240.78a5.94,5.94,0,0,1,.91.25,14.8,14.8,0,0,1,1.82-3.37,20.65,20.65,0,0,1,3.81-5,.45.45,0,0,1,.7.52A48.29,48.29,0,0,1,4.9,238a28.53,28.53,0,0,1-2.09,3.78l.24.17a26,26,0,0,0,2.44-2.44c1.6-1.62,3.62-2.93,4.7-5,.23-.44,1-.35.92.22-.48,2.37-2.41,3.92-4.09,5.53A23.45,23.45,0,0,1,4.16,243l.14.16.09.13c.93-.74,2.13-1.23,3.09-1.87a23.09,23.09,0,0,0,4.69-4.34c.27-.33.89,0,.69.38a13.22,13.22,0,0,1-4,4.68A10.63,10.63,0,0,1,5,244.41a6.09,6.09,0,0,1,.22.57l.53-.08a9.83,9.83,0,0,1,3.49-1.24,13.75,13.75,0,0,0,1.46-.8c3.36-2.24,7.83-6.85,5.5-11.29C11.81,223,3.53,230.43,1.1,237.06a14.74,14.74,0,0,1-.68,3.64S.43,240.76.43,240.78Z"/><path class="cls-19" d="M8.9,242.14a13.22,13.22,0,0,0,4-4.68c.2-.43-.41-.71-.69-.38a23.09,23.09,0,0,1-4.69,4.34c-1,.65-2.17,1.13-3.09,1.87A6,6,0,0,1,5,244.41,10.63,10.63,0,0,0,8.9,242.14Z"/><path class="cls-19" d="M4.16,243A23.45,23.45,0,0,0,7,240.26c1.68-1.6,3.61-3.15,4.09-5.53.12-.57-.69-.66-.92-.22-1.08,2.07-3.1,3.38-4.7,5A26,26,0,0,1,3.05,242,6.83,6.83,0,0,1,4.16,243Z"/><path class="cls-19" d="M4.9,238a48.29,48.29,0,0,0,2.77-4.83.45.45,0,0,0-.7-.52,20.65,20.65,0,0,0-3.81,5A14.8,14.8,0,0,0,1.34,241a6.34,6.34,0,0,1,1.47.75A28.53,28.53,0,0,0,4.9,238Z"/><path class="cls-18" d="M5.35,245.2a6.39,6.39,0,0,1,.19.8,11.64,11.64,0,0,1,4.27-.26,20.65,20.65,0,0,1,6.24.8.45.45,0,0,1-.1.86,48.33,48.33,0,0,1-5.57,0c-1.42,0-3.14.36-4.59,0,0,.08,0,.17,0,.25a21.64,21.64,0,0,0,3.56,1c2.2.58,4.35,1.67,6.68,1.57.49,0,.82.72.26.91-2.29.77-4.61-.13-6.83-.78a24.82,24.82,0,0,1-3.74-1.08c0,.12,0,.24-.07.36,1.06.44,2,1.2,3,1.69a23,23,0,0,0,6.1,1.89c.42.07.48.74,0,.79a13.21,13.21,0,0,1-6-1.08,12.63,12.63,0,0,1-3.46-1.79c-.07.21-.16.41-.25.62a10.21,10.21,0,0,1,2.58,2.28,13.84,13.84,0,0,0,1.43.86c3.62,1.79,9.84,3.36,12.53-.88,5.15-8.12-5.38-11.59-12.33-10.39a9.83,9.83,0,0,0-3.49,1.24C5.65,245,5.49,245.1,5.35,245.2Z"/><path class="cls-19" d="M5.34,251.17A12.63,12.63,0,0,0,8.79,253a13.21,13.21,0,0,0,6,1.08c.47,0,.4-.71,0-.79a23,23,0,0,1-6.1-1.89c-1-.49-2-1.26-3-1.69,0,.11,0,.23-.07.34A7.13,7.13,0,0,1,5.34,251.17Z"/><path class="cls-19" d="M5.74,249.31a24.82,24.82,0,0,0,3.74,1.08c2.23.65,4.54,1.55,6.83.78.55-.18.23-.93-.26-.91-2.33.1-4.48-1-6.68-1.57a21.64,21.64,0,0,1-3.56-1A7,7,0,0,1,5.74,249.31Z"/><path class="cls-19" d="M5.79,247.45c1.45.33,3.17,0,4.59,0a48.33,48.33,0,0,0,5.57,0,.45.45,0,0,0,.1-.86,20.65,20.65,0,0,0-6.24-.8,11.64,11.64,0,0,0-4.27.26c0,.06,0,.11,0,.17A7.85,7.85,0,0,1,5.79,247.45Z"/><path class="cls-18" d="M5.09,251.78a6.53,6.53,0,0,1-.54,1,23.22,23.22,0,0,1,1.57,2.75,20.66,20.66,0,0,1,2.43,5.81.45.45,0,0,1-.79.35A48.22,48.22,0,0,1,5,256.88c-.47-.83-1.16-1.7-1.7-2.61a4.72,4.72,0,0,1-.51.36c.19.69.43,1.38.61,2,.6,2.2.73,4.6,2,6.57.27.42-.22,1.07-.65.68-1.81-1.6-2.19-4.05-2.74-6.31-.19-.78-.47-1.58-.68-2.37l-.53.09c0,.71-.06,1.43,0,2.1a23.09,23.09,0,0,0,1.42,6.23c.15.4-.4.79-.67.41A10.94,10.94,0,0,1,0,261v5.89a6,6,0,0,0,4.84,3c9.61.4,7.35-10.45,2.83-15.87A10.21,10.21,0,0,0,5.09,251.78Z"/><path class="cls-19" d="M2.12,263.64a23.09,23.09,0,0,1-1.42-6.23c0-.67,0-1.39,0-2.1a5.76,5.76,0,0,1-.72,0V261a10.94,10.94,0,0,0,1.45,3C1.72,264.43,2.27,264,2.12,263.64Z"/><path class="cls-19" d="M1.93,257.59c.55,2.25.93,4.7,2.74,6.31.44.39.92-.26.65-.68-1.25-2-1.38-4.38-2-6.57-.17-.64-.41-1.32-.61-2a4.78,4.78,0,0,1-1.49.59C1.46,256,1.74,256.81,1.93,257.59Z"/><path class="cls-19" d="M3.26,254.27c.54.91,1.23,1.78,1.7,2.61a48.22,48.22,0,0,0,2.8,4.82.45.45,0,0,0,.79-.35,20.66,20.66,0,0,0-2.43-5.81,23.22,23.22,0,0,0-1.57-2.75,6.56,6.56,0,0,1-1,1.27C3.43,254.14,3.34,254.2,3.26,254.27Z"/><path class="cls-18" d="M1.14,235.39A18.38,18.38,0,0,0,0,230.08v10.65l.4.05,0-.08a14.74,14.74,0,0,0,.68-3.64A13.77,13.77,0,0,0,1.14,235.39Z"/><path class="cls-20" d="M.72,255.3l.53-.09a4.78,4.78,0,0,0,1.49-.59,4.72,4.72,0,0,0,.51-.36c.08-.07.17-.12.25-.2a6.56,6.56,0,0,0,1-1.27,6.53,6.53,0,0,0,.54-1c.09-.2.18-.41.25-.62A7.13,7.13,0,0,0,5.6,250c0-.11,0-.23.07-.34s.05-.24.07-.36a7,7,0,0,0,.07-1.61c0-.08,0-.17,0-.25a7.85,7.85,0,0,0-.22-1.27c0-.06,0-.11,0-.17a6.39,6.39,0,0,0-.19-.8L5.27,245a6.09,6.09,0,0,0-.22-.57,6,6,0,0,0-.66-1.12l-.09-.13L4.16,243A6.83,6.83,0,0,0,3.05,242l-.24-.17A6.34,6.34,0,0,0,1.34,241a5.94,5.94,0,0,0-.91-.25h0l-.4-.05v2a1.69,1.69,0,0,1,2,0,1.7,1.7,0,0,1,.35,2.35,3.69,3.69,0,0,1,.8,1.65h.07a1.21,1.21,0,0,1,1.91-.79,1.22,1.22,0,0,1-1.37,2,2.16,2.16,0,0,1-.61.27c0,.24,0,.48,0,.73a3,3,0,0,1-.3,1.33s0,.08-.07.12a1.69,1.69,0,0,1,.31,2.32,1.69,1.69,0,0,1-2.35.35,1.65,1.65,0,0,1-.63-1H0v3.29A5.76,5.76,0,0,0,.72,255.3Z"/><path class="cls-21" d="M.28,251,0,250.53v1.52H.17A1.69,1.69,0,0,1,.28,251Z"/><path class="cls-21" d="M1.18,248.59A15.74,15.74,0,0,1,1.86,250a1.65,1.65,0,0,1,.94.32l0,0s.05-.08.07-.12a3,3,0,0,0,.3-1.33c0-.24,0-.49,0-.73a6,6,0,0,1-.92.19C1.9,248.46,1.54,248.52,1.18,248.59Z"/><path class="cls-21" d="M.89,245.74a5.7,5.7,0,0,1-.26,1.19l.22,0a12,12,0,0,1,1.42-.13c.3,0,.6,0,.9,0a3.69,3.69,0,0,0-.8-1.65h0A1.69,1.69,0,0,1,.89,245.74Z"/><path class="cls-22" d="M.17,252a1.65,1.65,0,0,0,.63,1,1.69,1.69,0,0,0,2.35-.35,1.69,1.69,0,0,0-.31-2.32l0,0a1.65,1.65,0,0,0-.94-.32,15.74,15.74,0,0,0-.68-1.45c.36-.07.72-.13,1.07-.18a6,6,0,0,0,.92-.19,2.16,2.16,0,0,0,.61-.27,1.22,1.22,0,0,0,1.37-2,1.21,1.21,0,0,0-1.91.79H3.17c-.3,0-.6,0-.9,0a12,12,0,0,0-1.42.13l-.22,0a5.7,5.7,0,0,0,.26-1.19,1.69,1.69,0,0,0,1.48-.66h0A1.7,1.7,0,0,0,2,242.73a1.69,1.69,0,0,0-2,0v7.78l.28.47A1.69,1.69,0,0,0,.17,252Z"/><path class="cls-18" d="M497.82,259.53a16.21,16.21,0,0,0,2.18,7.41V261a18.52,18.52,0,0,1-.63-2.77,16.38,16.38,0,0,1-.26-3l-.61-.12a11.05,11.05,0,0,1-.65,2.72A13.76,13.76,0,0,0,497.82,259.53Z"/><path class="cls-19" d="M499.37,258.28A18.52,18.52,0,0,0,500,261v-5.71a6.46,6.46,0,0,1-.89-.07A16.38,16.38,0,0,0,499.37,258.28Z"/><path class="cls-18" d="M497.29,254.73a28.38,28.38,0,0,1-1.5,2.52,20.64,20.64,0,0,1-3.81,5,.45.45,0,0,1-.7-.52,48.31,48.31,0,0,1,2.77-4.83c.54-.92,1-2.11,1.6-3.1l-.39-.3c-.64.61-1.23,1.31-1.81,1.89-1.6,1.62-3.62,2.93-4.7,5-.23.44-1,.35-.92-.22.48-2.37,2.41-3.92,4.09-5.53.75-.72,1.44-1.57,2.23-2.25l-.23-.31c-.8.51-1.7.91-2.45,1.41a23,23,0,0,0-4.69,4.34c-.28.33-.89,0-.69-.38a13.21,13.21,0,0,1,4-4.68,14.76,14.76,0,0,1,2.79-1.89c-.13-.16-.26-.33-.37-.49a10.82,10.82,0,0,1-2.82.87,13.79,13.79,0,0,0-1.46.8c-3.36,2.24-7.83,6.85-5.5,11.29,4.45,8.52,12.73,1.14,15.16-5.49a11.05,11.05,0,0,0,.65-2.72A7.89,7.89,0,0,1,497.29,254.73Z"/><path class="cls-19" d="M493.76,251.83a8.13,8.13,0,0,1-.92-1,14.76,14.76,0,0,0-2.79,1.89,13.21,13.21,0,0,0-4,4.68c-.2.43.41.71.69.38a23,23,0,0,1,4.69-4.34c.75-.5,1.65-.91,2.45-1.41l-.12-.17Z"/><path class="cls-19" d="M494.16,252.4c-.79.68-1.48,1.54-2.23,2.25-1.68,1.6-3.61,3.15-4.09,5.53-.12.57.69.66.92.22,1.08-2.07,3.1-3.38,4.7-5,.58-.58,1.17-1.28,1.81-1.89A7.38,7.38,0,0,1,494.16,252.4Z"/><path class="cls-19" d="M494.06,256.92a48.31,48.31,0,0,0-2.77,4.83.45.45,0,0,0,.7.52,20.64,20.64,0,0,0,3.81-5,28.38,28.38,0,0,0,1.5-2.52,8.49,8.49,0,0,1-1.63-.92C495,254.81,494.6,256,494.06,256.92Z"/><path class="cls-18" d="M491.86,249.22c-.9.05-1.85,0-2.71-.06a20.69,20.69,0,0,1-6.24-.8.45.45,0,0,1,.1-.86,48.18,48.18,0,0,1,5.57,0c.92,0,2-.15,3-.17a4.12,4.12,0,0,1,.1-.61c-.71-.18-1.44-.32-2.09-.49-2.2-.58-4.35-1.67-6.68-1.57-.5,0-.82-.72-.27-.91,2.3-.77,4.61.13,6.83.78.92.27,1.92.43,2.84.73l.16-.24.09-.11c-.79-.43-1.55-1-2.31-1.34a23,23,0,0,0-6.1-1.89c-.42-.07-.48-.75,0-.79a13.22,13.22,0,0,1,6,1.08,12.42,12.42,0,0,1,3.5,1.83c.15-.12.28-.25.44-.36l.08-.08-.08-.09a9.83,9.83,0,0,1-2.82-2.41,13.83,13.83,0,0,0-1.43-.86c-3.62-1.79-9.84-3.36-12.53.88-5.15,8.12,5.38,11.59,12.33,10.39a10.82,10.82,0,0,0,2.82-.87A5.69,5.69,0,0,1,491.86,249.22Z"/><path class="cls-19" d="M493.66,243.79a12.42,12.42,0,0,0-3.5-1.83,13.22,13.22,0,0,0-6-1.08c-.47,0-.4.71,0,.79a23,23,0,0,1,6.1,1.89c.77.38,1.53.92,2.31,1.34A6.41,6.41,0,0,1,493.66,243.79Z"/><path class="cls-19" d="M489.47,244.52c-2.23-.65-4.54-1.55-6.83-.78-.55.18-.23.93.27.91,2.33-.1,4.48,1,6.68,1.57.65.17,1.38.31,2.09.49a4.7,4.7,0,0,1,.64-1.47C491.39,244.95,490.39,244.79,489.47,244.52Z"/><path class="cls-19" d="M491.57,247.33c-1,0-2.07.18-3,.17a48.18,48.18,0,0,0-5.57,0,.45.45,0,0,0-.1.86,20.69,20.69,0,0,0,6.24.8c.87,0,1.81.11,2.71.06A4.34,4.34,0,0,1,491.57,247.33Z"/><path class="cls-18" d="M494.1,243.26l.12.06c.12-.14.25-.26.38-.39a1.65,1.65,0,0,1,.16-.4,16,16,0,0,1-1.92-3.16,20.68,20.68,0,0,1-2.43-5.81.45.45,0,0,1,.79-.34A48.07,48.07,0,0,1,494,238a29.87,29.87,0,0,1,2.22,3.65h.09l.19-.12a27.44,27.44,0,0,0-.89-3.28c-.6-2.2-.73-4.6-2-6.57-.27-.42.22-1.07.65-.68,1.81,1.6,2.19,4.05,2.74,6.31a30.34,30.34,0,0,1,.92,3.58l.34-.09c-.11-1.09,0-2.25,0-3.3a23,23,0,0,0-1.42-6.23c-.15-.4.4-.79.67-.41a13.22,13.22,0,0,1,2.08,5.77,12,12,0,0,1,.15,4.06l.27,0V230.08c-1-2.68-2.87-5-5.89-5.1-9.61-.4-7.35,10.45-2.83,15.87A9.83,9.83,0,0,0,494.1,243.26Z"/><path class="cls-19" d="M499.73,240.7a12,12,0,0,0-.15-4.06,13.22,13.22,0,0,0-2.08-5.77c-.27-.38-.82,0-.67.41a23,23,0,0,1,1.42,6.23c.07,1.05-.08,2.21,0,3.3A5.43,5.43,0,0,1,499.73,240.7Z"/><path class="cls-19" d="M497,237.32c-.55-2.25-.93-4.7-2.74-6.31-.44-.39-.92.26-.65.68,1.25,2,1.38,4.38,2,6.57a27.44,27.44,0,0,1,.89,3.28,5.43,5.43,0,0,1,1.45-.66A30.34,30.34,0,0,0,497,237.32Z"/><path class="cls-19" d="M496.22,241.68A29.87,29.87,0,0,0,494,238a48.07,48.07,0,0,0-2.79-4.82.45.45,0,0,0-.79.34,20.68,20.68,0,0,0,2.43,5.81,16,16,0,0,0,1.92,3.16,1.6,1.6,0,0,1,.11-.18A1.68,1.68,0,0,1,496.22,241.68Z"/><path class="cls-20" d="M498.93,251.84a4.32,4.32,0,0,1-.5-.08,1.7,1.7,0,0,1-.25,1.47,1.72,1.72,0,0,1-2.76-2,1.66,1.66,0,0,1,.78-.56c-.05-.05-.11-.09-.16-.14s-.13-.16-.19-.25a4.39,4.39,0,0,1-.55-.57,1.69,1.69,0,1,1-.74-2.78,3.76,3.76,0,0,1,.25-.83,4.75,4.75,0,0,1,.76-1.18,1.56,1.56,0,0,1-.35-.18,1.69,1.69,0,0,1-.62-1.77c-.13.13-.26.25-.38.39l0,0-.08.08c-.16.11-.29.24-.44.36a6.41,6.41,0,0,0-1.1,1.11l-.09.11-.16.24a4.7,4.7,0,0,0-.64,1.47,4.12,4.12,0,0,0-.1.61,4.34,4.34,0,0,0,.29,1.89,5.69,5.69,0,0,0,.61,1.17c.11.17.24.33.37.49a8.13,8.13,0,0,0,.92,1l.05.09.12.17.23.31a7.38,7.38,0,0,0,1.11,1.11l.39.3a8.49,8.49,0,0,0,1.63.92,7.89,7.89,0,0,0,1.21.41l.61.12a6.46,6.46,0,0,0,.89.07v-3.29A3,3,0,0,1,498.93,251.84Z"/><path class="cls-20" d="M498.28,240.81l-.34.09a5.43,5.43,0,0,0-1.45.66l-.19.12a1.65,1.65,0,0,1,.9.32,1.67,1.67,0,0,1,.66,1.46,3.89,3.89,0,0,1,1.59,0,1.54,1.54,0,0,1,.54-.7v-2l-.27,0A5.43,5.43,0,0,0,498.28,240.81Z"/><path class="cls-21" d="M498.37,251.56a1.76,1.76,0,0,1,.05.2,4.32,4.32,0,0,0,.5.08,3,3,0,0,0,1.07.21v-1.52l-.47-.77A6.75,6.75,0,0,1,498.37,251.56Z"/><path class="cls-21" d="M494.54,246.89a1.59,1.59,0,0,1,1,.73,14.1,14.1,0,0,1,2.34-.36,9.18,9.18,0,0,1-1.64-2.24,1.7,1.7,0,0,1-.65-.14,4.75,4.75,0,0,0-.76,1.18A3.76,3.76,0,0,0,494.54,246.89Z"/><path class="cls-21" d="M499.05,245.56a8.06,8.06,0,0,1,.4-.88,1.72,1.72,0,0,1,0-1.23,3.89,3.89,0,0,0-1.59,0,1.66,1.66,0,0,1-.26.79A6.1,6.1,0,0,1,499.05,245.56Z"/><path class="cls-21" d="M495.84,250.23c.06.08.12.17.19.25s.11.09.16.14a1.79,1.79,0,0,1,.6-.12,8.56,8.56,0,0,1,.6-1.27,8.15,8.15,0,0,1-1.77-.06,1.6,1.6,0,0,1-.19.34,1.62,1.62,0,0,1-.14.15A4.39,4.39,0,0,0,495.84,250.23Z"/><path class="cls-22" d="M499.67,243.07a1.62,1.62,0,0,0-.21.37,1.72,1.72,0,0,0,0,1.23,8.06,8.06,0,0,0-.4.88,6.1,6.1,0,0,0-1.45-1.3,1.66,1.66,0,0,0-1.3-2.58h-.09a1.68,1.68,0,0,0-1.35.67,1.6,1.6,0,0,0-.11.18,1.65,1.65,0,0,0-.16.4,1.69,1.69,0,0,0,.62,1.77,1.56,1.56,0,0,0,.35.18,1.7,1.7,0,0,0,.65.14,9.18,9.18,0,0,0,1.64,2.24,14.1,14.1,0,0,0-2.34.36,1.59,1.59,0,0,0-1-.73,1.69,1.69,0,1,0,.74,2.78,1.62,1.62,0,0,0,.14-.15,1.6,1.6,0,0,0,.19-.34,8.15,8.15,0,0,0,1.77.06,8.56,8.56,0,0,0-.6,1.27,1.79,1.79,0,0,0-.6.12,1.66,1.66,0,0,0-.78.56,1.72,1.72,0,0,0,2.76,2,1.7,1.7,0,0,0,.25-1.47,1.76,1.76,0,0,0-.05-.2,6.75,6.75,0,0,0,1.16-1.8l.47.77v-7.78A1.62,1.62,0,0,0,499.67,243.07Z"/><path class="cls-24" d="M2.21,364.05A3.48,3.48,0,0,0,0,362.84V374.1a19.83,19.83,0,0,0,1.44-2.17C2.67,369.75,4.17,366.26,2.21,364.05Z"/><path class="cls-24" d="M22.08,416.37c1-1.68,2.22-4.33.83-6.14s-4.16-1-5.29.64a12.16,12.16,0,0,0-1.52,3.61c-.64-1.76-1.28-3.42-1.87-4.94-.22-.57-.45-1.12-.68-1.69a2.61,2.61,0,0,0,.47-.22A7.86,7.86,0,0,0,16.6,405c1.14-2,2.24-4.84,1.31-7.09s-3.93-1.79-4.9.21-.84,4.28-.84,6.48c-1.42-3.26-3-6.47-4.57-9.64,4.07-2.45,9.14-8.32,5.43-11.07-3.93-2.91-6.76,2-7.71,6.69Q3.95,388,2.55,385.4a18.54,18.54,0,0,0,3.63-4.18c1.24-2,1.52-5.06-.79-6.59s-4.22.38-5.39,3v9.86H0A9.94,9.94,0,0,1,.8,388.7a.55.55,0,0,0,.4.3c.55,1.05,1.08,2.12,1.62,3.17A13.24,13.24,0,0,0,0,391.79v6.29l.53.07c1.33.12,3.73,0,4.76-1.07.82,1.68,1.64,3.35,2.43,5l.2.46A6.53,6.53,0,0,0,6.83,402c-2-.8-5.1-.72-6.37,1.3-2.38,3.76,6.62,6.08,8.73,6.34a8.56,8.56,0,0,0,1.66,0c.73,1.95,1.39,3.91,2,5.87-2.26-1.47-5-2.29-7.47-.84A1.2,1.2,0,0,0,4.9,416a11.74,11.74,0,0,0,5.81,5.53c1,.48,2.76,1.26,4,.93a95.31,95.31,0,0,1,2.11,14.27.9.9,0,0,0,1.7.34c2-4.87,1.13-10.9-.49-16.62A9.75,9.75,0,0,0,22.08,416.37Z"/><path class="cls-24" d="M488.52,381c-1,.75-1.94,1.56-1.17,2.82a7.42,7.42,0,0,0,3.68,2.86c2.43.94,5.81,1.92,8.32.77a.5.5,0,0,0,.65.08v-9.86a16,16,0,0,0-.69,1.83l-.73-1.35-.89-1.64a11.66,11.66,0,0,0,2.31-2.37V362.84a4.39,4.39,0,0,0-4.27,2.67,16.64,16.64,0,0,0-1.39,4.85c-1-1.82-2-3.65-2.94-5.49a.68.68,0,0,0,0-.09c0-.1,0-.2-.08-.3a9.88,9.88,0,0,0,4-3.22c1.71-2.4,2.59-5.35.87-8a1.21,1.21,0,0,0-1.39-.48c-3.09,1.17-5.11,4.56-5.51,8-1-2-1.94-4.09-2.82-6.17a1.05,1.05,0,0,0,.69-1.35v0a17.63,17.63,0,0,0,3.12-4.38c1.09-1.9,2.87-5,1.67-7.21-1.29-2.39-5-1.33-6.26.49a12.53,12.53,0,0,0-2,4.86c-.46-1.56-1.1-3.78-1.7-6.09a13.27,13.27,0,0,0,3.51-1.25c2.59-1.34,4.25-3.35,4.43-6.31a1.26,1.26,0,0,0-1-1.18c-2.05-.29-6,1-8.22,3-.07-.36-.13-.72-.18-1.05,1.78-2.67,4-6.41,3.79-9.74-.11-2.09-2.74-5-5-3.45-2,1.42-1.95,4.86-1.93,7.06,0,1.44.09,2.87.21,4.3,0,.35,0,.81.11,1.26-2.39-3.59-6.13-7.6-8.45-3.63-1.73,3,.26,5.51,2.74,7.35,1,.75,3.5,2.68,5.47,3l0,0a4.65,4.65,0,0,0,2.21.78c.42,1.6.92,3.28,1.47,5-2.38-1.63-5.36-2.19-7.66-.44a1.05,1.05,0,0,0-.28,1.42c2.05,4,6.44,7.54,11.11,7.78.72,1.83,1.42,3.52,2,5-2.2-2.22-6-3.21-8.6-1.83a1,1,0,0,0-.41,1.2A9,9,0,0,0,483,364c1.64.59,4.1,1.91,5.84,1.2,1,2.15,2.13,4.29,3.23,6.42-2.69-1.56-5.6-2.34-8.74-.67a1.15,1.15,0,0,0-.45,1.3c.58,2.84,4.12,4.35,6.66,4.83a9.08,9.08,0,0,0,4.65-.06,3.8,3.8,0,0,0,.47-.22.58.58,0,0,0,.17.15h0l3.12,5.91C495.11,380.32,491.43,378.69,488.52,381Z"/><path class="cls-24" d="M500,398.08v-6.29a14.12,14.12,0,0,0-6.68,1.24,1.23,1.23,0,0,0-.34,1.7C494.38,396.79,497.55,397.77,500,398.08Z"/><path class="cls-4" d="M357.9,270.08a7.7,7.7,0,0,1,1.24,1.16l.28.29.37,0,.12-.15a7.47,7.47,0,0,1-.44-1.66,3.55,3.55,0,0,1-1.57-.37A1.94,1.94,0,0,1,357.9,270.08Z"/><path class="cls-4" d="M354.95,268.07a1.82,1.82,0,0,1,.89-.34c-3-3.44-5-10.28-5.18-12.65-.06-1,1.31-1.17,1.81-.46,2.32,3.31,3.06,7.56,5.64,10.62-.47-2.08-.79-4.25-1.27-6.26a28.46,28.46,0,0,1-.92-7.73.81.81,0,0,1,1.56-.2c.86,3.24,1.82,6.46,2.7,9.69l.42,1.5c.08-.37.16-.74.21-1.11.36-2.5.29-5,.64-7.49.1-.71,1.15-1.2,1.59-.41a12.47,12.47,0,0,1,1.19,7.35c-.27,2.44-.27,5.53-1.84,7.54a1.46,1.46,0,0,1-.74.47c.16.45.29.9.44,1.35l.06.15h0a4.82,4.82,0,0,1,1.28,0,6,6,0,0,1,.43-2,1.69,1.69,0,0,1-.43-1.12,1.89,1.89,0,0,1,1.49-1.77,1.75,1.75,0,0,1,1.13-.15,11.15,11.15,0,0,1,2.27-3.68c0-.29.07-.58.08-.88.51-6.78-.9-15-2.29-17.44a2.14,2.14,0,0,0-2.34-.9,6,6,0,0,0-2.83,1.57,7.13,7.13,0,0,0-2.69-2.81,2.2,2.2,0,0,0-2.52.31,10,10,0,0,0-3.3,5.9,12,12,0,0,0-2.39-2.26,2,2,0,0,0-1.94,0c-4.57,2.33-2.8,8.37-1.19,11.94a45,45,0,0,0,2.8,5.34,23.11,23.11,0,0,0,1.88,4.11l.18.28a23.38,23.38,0,0,1,2.66,1.24Z"/><path class="cls-5" d="M356.48,267.76a1.63,1.63,0,0,1,.89.58,1.7,1.7,0,0,1,.54,1,3.55,3.55,0,0,0,1.57.37c0-.22-.08-.45-.1-.66a1.84,1.84,0,0,1-1.43-1.73,1.92,1.92,0,0,1,3.83,0,1.68,1.68,0,0,1-.26.88c0,.12.08.24.13.36a1.46,1.46,0,0,0,.74-.47c1.58-2,1.57-5.1,1.84-7.54a12.47,12.47,0,0,0-1.19-7.35c-.44-.79-1.49-.31-1.59.41-.35,2.49-.28,5-.64,7.49-.05.37-.13.74-.21,1.11l-.42-1.5c-.88-3.23-1.85-6.45-2.7-9.69a.81.81,0,0,0-1.56.2,28.46,28.46,0,0,0,.92,7.73c.48,2,.8,4.17,1.27,6.26-2.58-3.05-3.32-7.31-5.64-10.62-.5-.71-1.87-.5-1.81.46.15,2.37,2.15,9.21,5.18,12.65A1.79,1.79,0,0,1,356.48,267.76Z"/><path class="cls-4" d="M357,277.91a2.53,2.53,0,0,1,.6.28,5.55,5.55,0,0,1,1.39-1.56,3.48,3.48,0,0,1-.36-.8l-1.05.17v0A2.82,2.82,0,0,1,357,277.91Z"/><path class="cls-4" d="M354,281l.51-.42a1.25,1.25,0,0,1-.17-.83c-4.41,1.64-11.92,1.32-14.36.72a.91.91,0,0,1,.09-1.77c4.05-1.05,8.59-.4,12.47-1.77-2.25-.22-4.53-.61-6.71-.79a33.74,33.74,0,0,1-8.09-1.57.75.75,0,0,1,.28-1.46c3.54.24,7.09.36,10.62.57l1.65.09c-.35-.19-.7-.37-1.06-.53-2.41-1.09-5-1.81-7.37-2.89-.69-.31-.85-1.4.08-1.55a14.73,14.73,0,0,1,7.79,1.21c2.27.95,5.2,1.87,6.81,3.72l.1,0a10,10,0,0,1,1.45-.35c-.57-.56-1.09-1.21-1.59-1.77a1.94,1.94,0,0,1-2.07-.81l-.1-.17a1.86,1.86,0,0,1,.43-2.38,2,2,0,0,1,.24-.19l-.5-.28a23.38,23.38,0,0,0-2.66-1.24c-.29-.12-.57-.24-.86-.35a52.28,52.28,0,0,0-5.66-1.76l-1.72-.41a55.26,55.26,0,0,0-7.45-1.18,15.79,15.79,0,0,0-3.42,0h-.07a2,2,0,0,0-1.63,1.82s0,.1,0,.14a5.29,5.29,0,0,0,.12,1.32,5.5,5.5,0,0,0,.59,1.55,7.62,7.62,0,0,0-3.67,1.54,1.9,1.9,0,0,0-.47,2.35,10.5,10.5,0,0,0,4.94,4.78,12.68,12.68,0,0,0-3,1.44,1.73,1.73,0,0,0-.6,1.74c.95,4.81,7.59,5.1,11.69,4.75a51.72,51.72,0,0,0,6.25-.86,26.92,26.92,0,0,0,4.74-.41l.33-.07A21.94,21.94,0,0,1,354,281Z"/><path class="cls-5" d="M355.29,278.39a1.72,1.72,0,0,1,1.73-.49h0a2.82,2.82,0,0,0,.59-1.89v0l-.14,0a2,2,0,0,1-1.88,1.29,1.94,1.94,0,0,1-2-1.86,1.88,1.88,0,0,1,.4-1.11h0a1.52,1.52,0,0,1,1-.75h0l.27-.06.12,0h.39l.12,0,.27.06h0a1.88,1.88,0,0,1,.29.12c-1.61-1.85-4.54-2.77-6.81-3.72a14.73,14.73,0,0,0-7.79-1.21c-.94.15-.77,1.24-.08,1.55,2.4,1.08,5,1.79,7.37,2.89.36.16.71.34,1.06.53l-1.65-.09c-3.54-.21-7.08-.34-10.62-.57a.75.75,0,0,0-.28,1.46,33.74,33.74,0,0,0,8.09,1.57c2.18.19,4.46.57,6.71.79-3.88,1.37-8.41.72-12.47,1.77a.91.91,0,0,0-.09,1.77c2.43.6,9.94.92,14.36-.72a1.7,1.7,0,0,1,.49-1A1.72,1.72,0,0,1,355.29,278.39Z"/><path class="cls-4" d="M365.19,282.09a1.85,1.85,0,0,1,0-.42,1.91,1.91,0,0,1,.43-1.19q-.2-.47-.39-.95a7.12,7.12,0,0,0-.93-.62l-.31,0h-.09c-.1.46-.16.93-.24,1.38,0,.14,0,.29-.06.43A3.12,3.12,0,0,1,365.19,282.09Z"/><path class="cls-4" d="M366.28,283.44a2.16,2.16,0,0,1-.73-.6c1.57,4.16-1.74,12.72-3.32,15a1,1,0,0,1-1.76-.63c.19-4,2.25-7.81,2.07-11.71-.92,1.95-2,3.87-2.88,5.76a29.73,29.73,0,0,1-4.08,6.76c-.54.65-1.73.1-1.39-.7,1.33-3.1,2.56-6.23,3.86-9.34l.6-1.45c-.3.25-.59.51-.86.78-1.85,1.82-3.36,3.89-5.2,5.71-.52.52-1.68.33-1.54-.55a12.9,12.9,0,0,1,3.62-6.6c1.64-1.72,3.45-4,5.77-4.92a2.09,2.09,0,0,1,.58-.36,6.9,6.9,0,0,1,.28-1.15,5.44,5.44,0,0,1,.33-.78,4.41,4.41,0,0,1-.69-.36l0,0c-.12.08-.24.16-.35.25a22,22,0,0,0-2,1.86.68.68,0,0,1-.13.09,1.73,1.73,0,0,1-1.66,1.3,2.66,2.66,0,0,1-2.25-1.16l-.06-.1L354,281a21.94,21.94,0,0,0-2.07,2c-.2.22-.42.43-.62.66-4.65,5.21-8.66,12.67-9,15.37a2,2,0,0,0,1.33,2,6.28,6.28,0,0,0,3.27.29,6.57,6.57,0,0,0,.42,3.77,2.13,2.13,0,0,0,2.23,1.15,11.07,11.07,0,0,0,6.36-3,11.08,11.08,0,0,0,.53,3.15,1.89,1.89,0,0,0,1.57,1.08c5.15.64,7.49-5.22,8.41-9a43.54,43.54,0,0,0,1.07-5.86,22.62,22.62,0,0,0,1-4.37c0-.11,0-.22,0-.32a20.85,20.85,0,0,1-1.38-2.47A15.47,15.47,0,0,1,366.28,283.44Z"/><path class="cls-5" d="M363.56,280.78c0,.18,0,.35,0,.53a1.83,1.83,0,0,1,.38,1.1,2.06,2.06,0,0,1-4.11,0,1.88,1.88,0,0,1,.68-1.41c-2.32.89-4.13,3.2-5.77,4.92a12.9,12.9,0,0,0-3.62,6.6c-.14.88,1,1.07,1.54.55,1.84-1.82,3.35-3.88,5.2-5.71.27-.27.56-.53.86-.78l-.6,1.45c-1.3,3.1-2.53,6.24-3.86,9.34-.35.8.85,1.36,1.39.7a29.73,29.73,0,0,0,4.08-6.76c.86-1.89,2-3.82,2.88-5.76.18,3.9-1.88,7.76-2.07,11.71a1,1,0,0,0,1.76.63c1.58-2.31,4.88-10.87,3.32-15a2,2,0,0,1-.36-.75A3.12,3.12,0,0,0,363.56,280.78Z"/><path class="cls-4" d="M370.28,276.43a2.42,2.42,0,0,1-.4-.21,3.58,3.58,0,0,1-.54,0l-1.25,0c0,.07-.06.15-.1.22a7.18,7.18,0,0,1,.94.44l.29.16a2,2,0,0,1,.73-.28A3.06,3.06,0,0,1,370.28,276.43Z"/><path class="cls-4" d="M373.54,275.19a1.94,1.94,0,0,1-.22.51c4.71.42,11.67,5.57,13.42,7.59.65.75-.33,1.68-1.18,1.38-3.94-1.39-7.2-4.42-11.19-5.47,1.68,1.42,3.29,3,4.94,4.36a30.88,30.88,0,0,1,5.57,5.74.78.78,0,0,1-1.14,1c-2.72-2.15-5.5-4.22-8.24-6.34l-1.28-1c.16.34.34.68.52,1,1.27,2.22,2.89,4.21,4.16,6.42.36.63-.19,1.61-1,1.21a13.57,13.57,0,0,1-5.55-5.28c-1.09-1.77-2.6-3.81-3.07-5.88a1.94,1.94,0,0,1-.9-1.31,7.85,7.85,0,0,1-.7-.39,9.5,9.5,0,0,1,.51,1.07,2,2,0,0,1,1.27,1.83,2.11,2.11,0,0,1-2.15,2,2.2,2.2,0,0,1-1-.25,15.47,15.47,0,0,0,.82,2,20.85,20.85,0,0,0,1.38,2.47c.16.25.31.51.48.76,3.83,5.77,10.12,11.67,12.74,12.84a2.17,2.17,0,0,0,2.45-.57,5.43,5.43,0,0,0,1.31-2.83,7.78,7.78,0,0,0,3.93.79,2.06,2.06,0,0,0,1.85-1.64,9.65,9.65,0,0,0-1-6.6,13.21,13.21,0,0,0,3.35.5,1.9,1.9,0,0,0,1.57-1.08c2.24-4.42-3-8.32-6.49-10.31a50.06,50.06,0,0,0-5.6-2.77,25.57,25.57,0,0,0-4.09-2.29l-.32-.13a23.75,23.75,0,0,1-2.92.47A18,18,0,0,1,373.54,275.19Z"/><path class="cls-5" d="M371.49,276.68a2,2,0,0,1-.31,0,2.52,2.52,0,0,1-.9-.25,3.06,3.06,0,0,0-.33.31,2.54,2.54,0,0,1,.46,0,2,2,0,1,1,0,4.07,2.18,2.18,0,0,1-1.15-.31c.46,2.08,2,4.11,3.07,5.88a13.57,13.57,0,0,0,5.55,5.28c.85.4,1.4-.58,1-1.21-1.27-2.21-2.89-4.2-4.16-6.42-.19-.33-.36-.67-.52-1l1.28,1c2.73,2.13,5.52,4.19,8.24,6.34a.78.78,0,0,0,1.14-1,30.88,30.88,0,0,0-5.57-5.74c-1.65-1.36-3.25-2.93-4.94-4.36,4,1,7.25,4.08,11.19,5.47.85.3,1.83-.63,1.18-1.38-1.75-2-8.71-7.17-13.42-7.59a2,2,0,0,1-.32.4A2.35,2.35,0,0,1,371.49,276.68Z"/><path class="cls-4" d="M396.66,264.62a5.83,5.83,0,0,0-2.46-2,6.88,6.88,0,0,0,2-3.28,1.68,1.68,0,0,0-.06-1,2.18,2.18,0,0,0-1-1.13,10.9,10.9,0,0,0-5.33-1.25,14.17,14.17,0,0,0-1.66.12,11.51,11.51,0,0,0,1.54-2.84,1.73,1.73,0,0,0-.6-1.74c-3.77-3.37-9.32.07-12.43,2.63a47.59,47.59,0,0,0-4.53,4.15,25,25,0,0,0-3.57,3l-.22.25a11.15,11.15,0,0,0-2.27,3.68l.13,0a1.72,1.72,0,0,1,1.32,1.64,2.06,2.06,0,0,1-1.18,1.79,6,6,0,0,0-.47,1.39c0,.13,0,.27-.06.4a6.41,6.41,0,0,0,.3.75,4.16,4.16,0,0,1,.67.3,3.16,3.16,0,0,1,.68-.78c.18-.15.36-.28.55-.41-3.64-4.36,8.16-12.08,11.57-13.33a.94.94,0,0,1,1,1.48c-2.62,3.1-6.69,5.08-9,8.33,2-1.07,4-2,5.92-3.07a33,33,0,0,1,7.52-3.21c.84-.23,1.46.88.68,1.34-3,1.77-6,3.63-9,5.42l-1.39.84c.4,0,.79-.09,1.18-.16,2.64-.45,5.14-1.29,7.77-1.74.75-.13,1.57.66.9,1.3a14.3,14.3,0,0,1-7.05,3.33c-2.48.5-5.5,1.41-8,.73-.26.21-.54.4-.8.6a10.06,10.06,0,0,0-1.19,1.1,3.45,3.45,0,0,1,.15.57l.27.17h.61a2.19,2.19,0,0,1,1.62-1.12h0a2.13,2.13,0,0,1,2.7,1.93,1.88,1.88,0,0,1-.08.51,18,18,0,0,0,2.19-.09,23.75,23.75,0,0,0,2.92-.47c.31-.07.61-.12.91-.2,7-1.64,14.91-5.46,16.91-7.44A1.88,1.88,0,0,0,396.66,264.62Z"/><path class="cls-5" d="M370.8,266.91a1.92,1.92,0,1,1,0,3.84h-.08a1.68,1.68,0,0,1-.44.65l0,0c2.48.68,5.5-.23,8-.73a14.3,14.3,0,0,0,7.05-3.33c.67-.64-.15-1.43-.9-1.3-2.62.45-5.13,1.29-7.77,1.74-.39.07-.79.11-1.18.16l1.39-.84c3-1.79,5.94-3.65,9-5.42.78-.46.16-1.57-.68-1.34a33,33,0,0,0-7.52,3.21c-1.88,1.05-4,2-5.92,3.07,2.29-3.25,6.36-5.24,9-8.33a.94.94,0,0,0-1-1.48c-3.41,1.25-15.21,9-11.57,13.33.31-.22.62-.43.94-.64A1.91,1.91,0,0,1,370.8,266.91Z"/><path class="cls-6" d="M364.93,265.23a1.89,1.89,0,0,0-1.49,1.77,1.69,1.69,0,0,0,.43,1.12,6,6,0,0,0-.43,2,4.82,4.82,0,0,0-1.28,0h0l-.06-.15c-.15-.44-.28-.9-.44-1.35,0-.12-.08-.25-.13-.36a1.68,1.68,0,0,0,.26-.88,1.92,1.92,0,0,0-3.83,0,1.84,1.84,0,0,0,1.43,1.73c0,.21.07.44.1.66a7.47,7.47,0,0,0,.44,1.66l-.12.15-.15.19-.21-.22-.28-.29a7.7,7.7,0,0,0-1.24-1.16,1.94,1.94,0,0,0,0-.7,1.7,1.7,0,0,0-.54-1,1.63,1.63,0,0,0-.89-.58,1.79,1.79,0,0,0-.64,0,1.82,1.82,0,0,0-.89.34,2,2,0,0,0-.24.19,1.86,1.86,0,0,0-.43,2.38l.1.17a1.94,1.94,0,0,0,2.07.81c.5.56,1,1.21,1.59,1.77a10,10,0,0,0-1.45.35l-.1,0a1.88,1.88,0,0,0-.29-.12h0l-.27-.06-.12,0h-.39l-.12,0-.27.06h0a1.52,1.52,0,0,0-1,.75h0a1.88,1.88,0,0,0-.4,1.11,1.94,1.94,0,0,0,2,1.86,2,2,0,0,0,1.88-1.29l.14,0,1.05-.17a3.48,3.48,0,0,0,.36.8,5.55,5.55,0,0,0-1.39,1.56,2.53,2.53,0,0,0-.6-.28h0a4.32,4.32,0,0,0-2.24.8,1.7,1.7,0,0,0-.49,1,1.25,1.25,0,0,0,.17.83l.06.1a2.66,2.66,0,0,0,2.25,1.16,1.73,1.73,0,0,0,1.66-1.3.68.68,0,0,0,.13-.09,22,22,0,0,1,2-1.86c.11-.09.23-.17.35-.25l0,0a4.41,4.41,0,0,0,.69.36,5.44,5.44,0,0,0-.33.78,6.9,6.9,0,0,0-.28,1.15,2.09,2.09,0,0,0-.58.36,1.88,1.88,0,0,0-.68,1.41,2.06,2.06,0,0,0,4.11,0,1.83,1.83,0,0,0-.38-1.1c0-.17,0-.35,0-.53s0-.29.06-.43c.08-.45.14-.92.24-1.38h.09l.31,0a5.76,5.76,0,0,0,.68-.09c.07.24.16.47.25.7s.25.63.39.95a1.91,1.91,0,0,0-.43,1.19,1.85,1.85,0,0,0,0,.42,2,2,0,0,0,.36.75,2.16,2.16,0,0,0,.73.6,2.2,2.2,0,0,0,1,.25,2.11,2.11,0,0,0,2.15-2,2,2,0,0,0-1.27-1.83,9.5,9.5,0,0,0-.51-1.07,7.85,7.85,0,0,0,.7.39,2,2,0,0,1,.86-2.13l-.29-.16a7.18,7.18,0,0,0-.94-.44c0-.07.07-.15.1-.22l1.25,0a3.58,3.58,0,0,0,.54,0,2.42,2.42,0,0,0,.4.21,2.52,2.52,0,0,0,.9.25,2,2,0,0,0,.31,0,2.35,2.35,0,0,0,1.5-.59,2,2,0,0,0,.32-.4,1.94,1.94,0,0,0,.22-.51,1.88,1.88,0,0,0,.08-.51,2.13,2.13,0,0,0-2.7-1.93h0a2.19,2.19,0,0,0-1.62,1.12h-.84c0-.06,0-.12,0-.17a3.45,3.45,0,0,0-.15-.57,10.06,10.06,0,0,1,1.19-1.1c.27-.2.54-.4.8-.6l0,0a1.68,1.68,0,0,0,.44-.65h.08a1.92,1.92,0,1,0-1.85-1.21c-.32.2-.63.41-.94.64s-.37.27-.55.41a3.16,3.16,0,0,0-.68.78,4.16,4.16,0,0,0-.67-.3l-.38-.13c0-.21.06-.41.09-.62s0-.27.06-.4a6,6,0,0,1,.47-1.39,2.06,2.06,0,0,0,1.18-1.79,1.72,1.72,0,0,0-1.32-1.64l-.13,0A1.75,1.75,0,0,0,364.93,265.23Zm1.66,8.11a4.3,4.3,0,0,1,.2.49,2.69,2.69,0,0,1-.77,2.74,3.26,3.26,0,0,1-2.91.72,2.88,2.88,0,0,1-2.14-2,3.7,3.7,0,0,1,0-1.81,2.88,2.88,0,0,1,2.82-2A2.94,2.94,0,0,1,366.6,273.34Z"/><path class="cls-6" d="M370.41,276.7a2.54,2.54,0,0,0-.46,0,2,2,0,0,0-.73.28,2,2,0,0,0-.86,2.13,1.94,1.94,0,0,0,.9,1.31,2.18,2.18,0,0,0,1.15.31A2,2,0,1,0,370.41,276.7Zm.37,3,0,0Z"/><path class="cls-7" d="M370.81,279.64l0,0"/><path class="cls-8" d="M361,273.49a3.7,3.7,0,0,0,0,1.81,2.88,2.88,0,0,0,2.14,2,3.26,3.26,0,0,0,2.91-.72,2.69,2.69,0,0,0,.77-2.74,4.3,4.3,0,0,0-.2-.49,2.94,2.94,0,0,0-2.77-1.87A2.88,2.88,0,0,0,361,273.49Z"/></g></g></svg>